<svg xmlns="http://www.w3.org/2000/svg" xmlns:xlink="http://www.w3.org/1999/xlink" contentStyleType="text/css" height="516px" preserveAspectRatio="none" style="width:398px;height:516px;background:#FFFFFF;" version="1.1" viewBox="0 0 398 516" width="398px" zoomAndPan="magnify"><defs/><g><!--class Conductor--><g id="elem_Conductor"><rect codeLine="1" fill="#F1F1F1" height="48" id="Conductor" rx="2.5" ry="2.5" style="stroke:#181818;stroke-width:0.5;" width="105" x="181" y="7"/><ellipse cx="196" cy="23" fill="#ADD1B2" rx="11" ry="11" style="stroke:#181818;stroke-width:1.0;"/><path d="M198.9688,28.6406 Q198.3906,28.9375 197.75,29.0781 Q197.1094,29.2344 196.4063,29.2344 Q193.9063,29.2344 192.5781,27.5938 Q191.2656,25.9375 191.2656,22.8125 Q191.2656,19.6875 192.5781,18.0313 Q193.9063,16.375 196.4063,16.375 Q197.1094,16.375 197.75,16.5313 Q198.4063,16.6875 198.9688,16.9844 L198.9688,19.7031 Q198.3438,19.125 197.75,18.8594 Q197.1563,18.5781 196.5313,18.5781 Q195.1875,18.5781 194.5,19.6563 Q193.8125,20.7188 193.8125,22.8125 Q193.8125,24.9063 194.5,25.9844 Q195.1875,27.0469 196.5313,27.0469 Q197.1563,27.0469 197.75,26.7813 Q198.3438,26.5 198.9688,25.9219 L198.9688,28.6406 Z " fill="#000000"/><text fill="#000000" font-family="sans-serif" font-size="14" lengthAdjust="spacing" textLength="73" x="210" y="27.8467">Conductor</text><line style="stroke:#181818;stroke-width:0.5;" x1="182" x2="285" y1="39" y2="39"/><line style="stroke:#181818;stroke-width:0.5;" x1="182" x2="285" y1="47" y2="47"/></g><!--class Ruta--><g id="elem_Ruta"><rect codeLine="4" fill="#F1F1F1" height="80.5938" id="Ruta" rx="2.5" ry="2.5" style="stroke:#181818;stroke-width:0.5;" width="177" x="7" y="210"/><ellipse cx="75.25" cy="226" fill="#ADD1B2" rx="11" ry="11" style="stroke:#181818;stroke-width:1.0;"/><path d="M78.2188,231.6406 Q77.6406,231.9375 77,232.0781 Q76.3594,232.2344 75.6563,232.2344 Q73.1563,232.2344 71.8281,230.5938 Q70.5156,228.9375 70.5156,225.8125 Q70.5156,222.6875 71.8281,221.0313 Q73.1563,219.375 75.6563,219.375 Q76.3594,219.375 77,219.5313 Q77.6563,219.6875 78.2188,219.9844 L78.2188,222.7031 Q77.5938,222.125 77,221.8594 Q76.4063,221.5781 75.7813,221.5781 Q74.4375,221.5781 73.75,222.6563 Q73.0625,223.7188 73.0625,225.8125 Q73.0625,227.9063 73.75,228.9844 Q74.4375,230.0469 75.7813,230.0469 Q76.4063,230.0469 77,229.7813 Q77.5938,229.5 78.2188,228.9219 L78.2188,231.6406 Z " fill="#000000"/><text fill="#000000" font-family="sans-serif" font-size="14" lengthAdjust="spacing" textLength="32" x="95.75" y="230.8467">Ruta</text><line style="stroke:#181818;stroke-width:0.5;" x1="8" x2="183" y1="242" y2="242"/><rect fill="none" height="6" style="stroke:#C82930;stroke-width:1.0;" width="6" x="15" y="252.6484"/><text fill="#000000" font-family="sans-serif" font-size="14" lengthAdjust="spacing" textLength="97" x="27" y="258.9951">horario: String</text><rect fill="none" height="6" style="stroke:#C82930;stroke-width:1.0;" width="6" x="15" y="268.9453"/><text fill="#000000" font-family="sans-serif" font-size="14" lengthAdjust="spacing" textLength="151" x="27" y="275.292">paradas: List&lt;String&gt;</text><line style="stroke:#181818;stroke-width:0.5;" x1="8" x2="183" y1="282.5938" y2="282.5938"/></g><!--class Vehiculo--><g id="elem_Vehiculo"><rect codeLine="9" fill="#F1F1F1" height="48" id="Vehiculo" rx="2.5" ry="2.5" style="stroke:#181818;stroke-width:0.5;" width="91" x="188" y="132"/><ellipse cx="203" cy="148" fill="#ADD1B2" rx="11" ry="11" style="stroke:#181818;stroke-width:1.0;"/><path d="M205.9688,153.6406 Q205.3906,153.9375 204.75,154.0781 Q204.1094,154.2344 203.4063,154.2344 Q200.9063,154.2344 199.5781,152.5938 Q198.2656,150.9375 198.2656,147.8125 Q198.2656,144.6875 199.5781,143.0313 Q200.9063,141.375 203.4063,141.375 Q204.1094,141.375 204.75,141.5313 Q205.4063,141.6875 205.9688,141.9844 L205.9688,144.7031 Q205.3438,144.125 204.75,143.8594 Q204.1563,143.5781 203.5313,143.5781 Q202.1875,143.5781 201.5,144.6563 Q200.8125,145.7188 200.8125,147.8125 Q200.8125,149.9063 201.5,150.9844 Q202.1875,152.0469 203.5313,152.0469 Q204.1563,152.0469 204.75,151.7813 Q205.3438,151.5 205.9688,150.9219 L205.9688,153.6406 Z " fill="#000000"/><text fill="#000000" font-family="sans-serif" font-size="14" lengthAdjust="spacing" textLength="59" x="217" y="152.8467">Vehiculo</text><line style="stroke:#181818;stroke-width:0.5;" x1="189" x2="278" y1="164" y2="164"/><line style="stroke:#181818;stroke-width:0.5;" x1="189" x2="278" y1="172" y2="172"/></g><!--class Pasajero--><g id="elem_Pasajero"><rect codeLine="12" fill="#F1F1F1" height="64.2969" id="Pasajero" rx="2.5" ry="2.5" style="stroke:#181818;stroke-width:0.5;" width="146" x="160.5" y="320.59"/><ellipse cx="200.25" cy="336.59" fill="#ADD1B2" rx="11" ry="11" style="stroke:#181818;stroke-width:1.0;"/><path d="M203.2188,342.2306 Q202.6406,342.5275 202,342.6681 Q201.3594,342.8244 200.6563,342.8244 Q198.1563,342.8244 196.8281,341.1838 Q195.5156,339.5275 195.5156,336.4025 Q195.5156,333.2775 196.8281,331.6213 Q198.1563,329.965 200.6563,329.965 Q201.3594,329.965 202,330.1213 Q202.6563,330.2775 203.2188,330.5744 L203.2188,333.2931 Q202.5938,332.715 202,332.4494 Q201.4063,332.1681 200.7813,332.1681 Q199.4375,332.1681 198.75,333.2463 Q198.0625,334.3088 198.0625,336.4025 Q198.0625,338.4963 198.75,339.5744 Q199.4375,340.6369 200.7813,340.6369 Q201.4063,340.6369 202,340.3713 Q202.5938,340.09 203.2188,339.5119 L203.2188,342.2306 Z " fill="#000000"/><text fill="#000000" font-family="sans-serif" font-size="14" lengthAdjust="spacing" textLength="59" x="219.75" y="341.4367">Pasajero</text><line style="stroke:#181818;stroke-width:0.5;" x1="161.5" x2="305.5" y1="352.59" y2="352.59"/><rect fill="none" height="6" style="stroke:#C82930;stroke-width:1.0;" width="6" x="168.5" y="363.2384"/><text fill="#000000" font-family="sans-serif" font-size="14" lengthAdjust="spacing" textLength="120" x="180.5" y="369.5851">tipoAbono: String</text><line style="stroke:#181818;stroke-width:0.5;" x1="161.5" x2="305.5" y1="376.8869" y2="376.8869"/></g><!--class Tarifa--><g id="elem_Tarifa"><rect codeLine="16" fill="#F1F1F1" height="48" id="Tarifa" rx="2.5" ry="2.5" style="stroke:#181818;stroke-width:0.5;" width="69" x="199" y="461.89"/><ellipse cx="214" cy="477.89" fill="#ADD1B2" rx="11" ry="11" style="stroke:#181818;stroke-width:1.0;"/><path d="M216.9688,483.5306 Q216.3906,483.8275 215.75,483.9681 Q215.1094,484.1244 214.4063,484.1244 Q211.9063,484.1244 210.5781,482.4838 Q209.2656,480.8275 209.2656,477.7025 Q209.2656,474.5775 210.5781,472.9213 Q211.9063,471.265 214.4063,471.265 Q215.1094,471.265 215.75,471.4213 Q216.4063,471.5775 216.9688,471.8744 L216.9688,474.5931 Q216.3438,474.015 215.75,473.7494 Q215.1563,473.4681 214.5313,473.4681 Q213.1875,473.4681 212.5,474.5463 Q211.8125,475.6088 211.8125,477.7025 Q211.8125,479.7963 212.5,480.8744 Q213.1875,481.9369 214.5313,481.9369 Q215.1563,481.9369 215.75,481.6713 Q216.3438,481.39 216.9688,480.8119 L216.9688,483.5306 Z " fill="#000000"/><text fill="#000000" font-family="sans-serif" font-size="14" lengthAdjust="spacing" textLength="37" x="228" y="482.7367">Tarifa</text><line style="stroke:#181818;stroke-width:0.5;" x1="200" x2="267" y1="493.89" y2="493.89"/><line style="stroke:#181818;stroke-width:0.5;" x1="200" x2="267" y1="501.89" y2="501.89"/></g><!--link Vehiculo to Pasajero--><g id="link_Vehiculo_Pasajero"><path codeLine="19" d="M233.5,180.49 C233.5,215.39 233.5,275.01 233.5,314.11 " fill="none" id="Vehiculo-to-Pasajero" style="stroke:#181818;stroke-width:1.0;"/><polygon fill="#181818" points="233.5,320.11,237.5,311.11,233.5,315.11,229.5,311.11,233.5,320.11" style="stroke:#181818;stroke-width:1.0;"/><text fill="#000000" font-family="sans-serif" font-size="13" lengthAdjust="spacing" textLength="67" x="234.5" y="254.8669">transporta</text><text fill="#000000" font-family="sans-serif" font-size="13" lengthAdjust="spacing" textLength="7" x="225.8328" y="309.5401">*</text></g><!--link Conductor to Ruta--><g id="link_Conductor_Ruta"><path codeLine="20" d="M212.66,55.32 C205.01,64.32 196.52,74.88 189.5,85 C161.22,125.78 136.3938,170.3002 118.4938,204.3202 " fill="none" id="Conductor-to-Ruta" style="stroke:#181818;stroke-width:1.0;"/><polygon fill="#181818" points="115.7,209.63,123.4307,203.5278,118.0282,205.2051,116.3509,199.8027,115.7,209.63" style="stroke:#181818;stroke-width:1.0;"/><text fill="#000000" font-family="sans-serif" font-size="13" lengthAdjust="spacing" textLength="34" x="190.5" y="98.0669">sigue</text><text fill="#000000" font-family="sans-serif" font-size="13" lengthAdjust="spacing" textLength="8" x="110.2819" y="199.0309">1</text></g><!--link Conductor to Tarifa--><g id="link_Conductor_Tarifa"><path codeLine="21" d="M271.19,55.28 C281.35,63.42 291.25,73.46 297.5,85 C361.26,202.66 372.79,260.08 324.5,384.89 C312.47,415.98 290.3577,439.4495 268.9777,457.6595 " fill="none" id="Conductor-to-Tarifa" style="stroke:#181818;stroke-width:1.0;"/><polygon fill="#181818" points="264.41,461.55,273.8553,458.7594,268.2164,458.3079,268.6679,452.6691,264.41,461.55" style="stroke:#181818;stroke-width:1.0;"/><text fill="#000000" font-family="sans-serif" font-size="13" lengthAdjust="spacing" textLength="36" x="354.5" y="254.8669">cobra</text><text fill="#000000" font-family="sans-serif" font-size="13" lengthAdjust="spacing" textLength="7" x="264.0912" y="450.8721">*</text></g><!--link Pasajero to Tarifa--><g id="link_Pasajero_Tarifa"><path codeLine="22" d="M233.5,385.15 C233.5,408.65 233.5,434.25 233.5,455.54 " fill="none" id="Pasajero-to-Tarifa" style="stroke:#181818;stroke-width:1.0;"/><polygon fill="#181818" points="233.5,461.54,237.5,452.54,233.5,456.54,229.5,452.54,233.5,461.54" style="stroke:#181818;stroke-width:1.0;"/><text fill="#000000" font-family="sans-serif" font-size="13" lengthAdjust="spacing" textLength="32" x="234.5" y="427.9569">paga</text><text fill="#000000" font-family="sans-serif" font-size="13" lengthAdjust="spacing" textLength="8" x="224.525" y="450.8596">1</text></g><!--link Ruta to Tarifa--><g id="link_Ruta_Tarifa"><path codeLine="23" d="M88.77,291 C86.01,318.86 86.38,356.11 101.5,384.89 C122.42,424.72 161.758,450.4981 193.318,466.6381 " fill="none" id="Ruta-to-Tarifa" style="stroke:#181818;stroke-width:1.0;"/><polygon fill="#181818" points="198.66,469.37,192.4683,461.7108,194.2084,467.0934,188.8258,468.8334,198.66,469.37" style="stroke:#181818;stroke-width:1.0;"/><text fill="#000000" font-family="sans-serif" font-size="13" lengthAdjust="spacing" textLength="39" x="102.5" y="357.3069">define</text><text fill="#000000" font-family="sans-serif" font-size="13" lengthAdjust="spacing" textLength="23" x="167.9849" y="462.4696">1..*</text></g><!--link Conductor to Vehiculo--><g id="link_Conductor_Vehiculo"><path codeLine="24" d="M233.5,55.42 C233.5,77.31 233.5,103.8 233.5,125.66 " fill="none" id="Conductor-to-Vehiculo" style="stroke:#181818;stroke-width:1.0;"/><polygon fill="#181818" points="233.5,131.66,237.5,122.66,233.5,126.66,229.5,122.66,233.5,131.66" style="stroke:#181818;stroke-width:1.0;"/><text fill="#000000" font-family="sans-serif" font-size="13" lengthAdjust="spacing" textLength="54" x="234.5" y="98.0669">conduce</text><text fill="#000000" font-family="sans-serif" font-size="13" lengthAdjust="spacing" textLength="8" x="224.525" y="120.9821">1</text></g><!--SRC=[ROz12y8m38Nl_HLXHs43hqK6ujM3g7ZFkcwhZAQatKdyxswhwuQOM_BolfUe7hs74zbwK84ONk8jX9g7ro7WsCDOUKUCR4Z2BR2nRHmwPApHIpWR7mvHALV_GtT63JrjcHVq-DHC2pSOHyUAx4fEg_SniC5eJgWyBo7RPIj7Gc2qtX475EiRyzu-Ypz8yAOTzAyyOhuP4XHLZ29H5tlI7ROePbYKYcBhhdLZhFuJd-wU4YPHVm00]--></g></svg>