<svg xmlns="http://www.w3.org/2000/svg" xmlns:xlink="http://www.w3.org/1999/xlink" contentStyleType="text/css" height="777px" preserveAspectRatio="none" style="width:400px;height:777px;background:#FFFFFF;" version="1.1" viewBox="0 0 400 777" width="400px" zoomAndPan="magnify"><defs/><g><!--class Vehiculo--><g id="elem_Vehiculo"><rect codeLine="1" fill="#F1F1F1" height="129.4844" id="Vehiculo" rx="2.5" ry="2.5" style="stroke:#181818;stroke-width:0.5;" width="127" x="185" y="7"/><ellipse cx="216.2" cy="23" fill="#ADD1B2" rx="11" ry="11" style="stroke:#181818;stroke-width:1.0;"/><path d="M219.1688,28.6406 Q218.5906,28.9375 217.95,29.0781 Q217.3094,29.2344 216.6063,29.2344 Q214.1063,29.2344 212.7781,27.5938 Q211.4656,25.9375 211.4656,22.8125 Q211.4656,19.6875 212.7781,18.0313 Q214.1063,16.375 216.6063,16.375 Q217.3094,16.375 217.95,16.5313 Q218.6063,16.6875 219.1688,16.9844 L219.1688,19.7031 Q218.5438,19.125 217.95,18.8594 Q217.3563,18.5781 216.7313,18.5781 Q215.3875,18.5781 214.7,19.6563 Q214.0125,20.7188 214.0125,22.8125 Q214.0125,24.9063 214.7,25.9844 Q215.3875,27.0469 216.7313,27.0469 Q217.3563,27.0469 217.95,26.7813 Q218.5438,26.5 219.1688,25.9219 L219.1688,28.6406 Z " fill="#000000"/><text fill="#000000" font-family="sans-serif" font-size="14" lengthAdjust="spacing" textLength="59" x="233.8" y="27.8467">Vehiculo</text><line style="stroke:#181818;stroke-width:0.5;" x1="186" x2="311" y1="39" y2="39"/><ellipse cx="196" cy="52.6484" fill="none" rx="3" ry="3" style="stroke:#038048;stroke-width:1.0;"/><text fill="#000000" font-family="sans-serif" font-size="14" lengthAdjust="spacing" textLength="97" x="205" y="55.9951">estado: String</text><line style="stroke:#181818;stroke-width:0.5;" x1="186" x2="311" y1="63.2969" y2="63.2969"/><ellipse cx="196" cy="76.9453" fill="#84BE84" rx="3" ry="3" style="stroke:#038048;stroke-width:1.0;"/><text fill="#000000" font-family="sans-serif" font-size="14" lengthAdjust="spacing" textLength="81" x="205" y="80.292">iniciarRuta()</text><ellipse cx="196" cy="93.2422" fill="#84BE84" rx="3" ry="3" style="stroke:#038048;stroke-width:1.0;"/><text fill="#000000" font-family="sans-serif" font-size="14" lengthAdjust="spacing" textLength="57" x="205" y="96.5889">pausar()</text><ellipse cx="196" cy="109.5391" fill="#84BE84" rx="3" ry="3" style="stroke:#038048;stroke-width:1.0;"/><text fill="#000000" font-family="sans-serif" font-size="14" lengthAdjust="spacing" textLength="72" x="205" y="112.8857">reanudar()</text><ellipse cx="196" cy="125.8359" fill="#84BE84" rx="3" ry="3" style="stroke:#038048;stroke-width:1.0;"/><text fill="#000000" font-family="sans-serif" font-size="14" lengthAdjust="spacing" textLength="101" x="205" y="129.1826">llegarDestino()</text></g><!--class Conductor--><g id="elem_Conductor"><rect codeLine="9" fill="#F1F1F1" height="113.1875" id="Conductor" rx="2.5" ry="2.5" style="stroke:#181818;stroke-width:0.5;" width="158" x="103.5" y="213.48"/><ellipse cx="142.35" cy="229.48" fill="#ADD1B2" rx="11" ry="11" style="stroke:#181818;stroke-width:1.0;"/><path d="M145.3188,235.1206 Q144.7406,235.4175 144.1,235.5581 Q143.4594,235.7144 142.7563,235.7144 Q140.2563,235.7144 138.9281,234.0738 Q137.6156,232.4175 137.6156,229.2925 Q137.6156,226.1675 138.9281,224.5113 Q140.2563,222.855 142.7563,222.855 Q143.4594,222.855 144.1,223.0113 Q144.7563,223.1675 145.3188,223.4644 L145.3188,226.1831 Q144.6938,225.605 144.1,225.3394 Q143.5063,225.0581 142.8813,225.0581 Q141.5375,225.0581 140.85,226.1363 Q140.1625,227.1988 140.1625,229.2925 Q140.1625,231.3863 140.85,232.4644 Q141.5375,233.5269 142.8813,233.5269 Q143.5063,233.5269 144.1,233.2613 Q144.6938,232.98 145.3188,232.4019 L145.3188,235.1206 Z " fill="#000000"/><text fill="#000000" font-family="sans-serif" font-size="14" lengthAdjust="spacing" textLength="73" x="161.65" y="234.3267">Conductor</text><line style="stroke:#181818;stroke-width:0.5;" x1="104.5" x2="260.5" y1="245.48" y2="245.48"/><ellipse cx="114.5" cy="259.1284" fill="none" rx="3" ry="3" style="stroke:#038048;stroke-width:1.0;"/><text fill="#000000" font-family="sans-serif" font-size="14" lengthAdjust="spacing" textLength="103" x="123.5" y="262.4751">nombre: String</text><line style="stroke:#181818;stroke-width:0.5;" x1="104.5" x2="260.5" y1="269.7769" y2="269.7769"/><ellipse cx="114.5" cy="283.4253" fill="#84BE84" rx="3" ry="3" style="stroke:#038048;stroke-width:1.0;"/><text fill="#000000" font-family="sans-serif" font-size="14" lengthAdjust="spacing" textLength="132" x="123.5" y="286.772">iniciarConduccion()</text><ellipse cx="114.5" cy="299.7222" fill="#84BE84" rx="3" ry="3" style="stroke:#038048;stroke-width:1.0;"/><text fill="#000000" font-family="sans-serif" font-size="14" lengthAdjust="spacing" textLength="45" x="123.5" y="303.0689">parar()</text><ellipse cx="114.5" cy="316.0191" fill="#84BE84" rx="3" ry="3" style="stroke:#038048;stroke-width:1.0;"/><text fill="#000000" font-family="sans-serif" font-size="14" lengthAdjust="spacing" textLength="131" x="123.5" y="319.3657">registrarIncidente()</text></g><!--class Pasajero--><g id="elem_Pasajero"><rect codeLine="16" fill="#F1F1F1" height="129.4844" id="Pasajero" rx="2.5" ry="2.5" style="stroke:#181818;stroke-width:0.5;" width="158" x="235.5" y="356.67"/><ellipse cx="280.75" cy="372.67" fill="#ADD1B2" rx="11" ry="11" style="stroke:#181818;stroke-width:1.0;"/><path d="M283.7188,378.3106 Q283.1406,378.6075 282.5,378.7481 Q281.8594,378.9044 281.1563,378.9044 Q278.6563,378.9044 277.3281,377.2637 Q276.0156,375.6075 276.0156,372.4825 Q276.0156,369.3575 277.3281,367.7012 Q278.6563,366.045 281.1563,366.045 Q281.8594,366.045 282.5,366.2012 Q283.1563,366.3575 283.7188,366.6544 L283.7188,369.3731 Q283.0938,368.795 282.5,368.5294 Q281.9063,368.2481 281.2813,368.2481 Q279.9375,368.2481 279.25,369.3262 Q278.5625,370.3887 278.5625,372.4825 Q278.5625,374.5762 279.25,375.6544 Q279.9375,376.7169 281.2813,376.7169 Q281.9063,376.7169 282.5,376.4512 Q283.0938,376.17 283.7188,375.5919 L283.7188,378.3106 Z " fill="#000000"/><text fill="#000000" font-family="sans-serif" font-size="14" lengthAdjust="spacing" textLength="59" x="301.25" y="377.5167">Pasajero</text><line style="stroke:#181818;stroke-width:0.5;" x1="236.5" x2="392.5" y1="388.67" y2="388.67"/><ellipse cx="246.5" cy="402.3184" fill="none" rx="3" ry="3" style="stroke:#038048;stroke-width:1.0;"/><text fill="#000000" font-family="sans-serif" font-size="14" lengthAdjust="spacing" textLength="103" x="255.5" y="405.6651">nombre: String</text><ellipse cx="246.5" cy="418.6153" fill="none" rx="3" ry="3" style="stroke:#038048;stroke-width:1.0;"/><text fill="#000000" font-family="sans-serif" font-size="14" lengthAdjust="spacing" textLength="120" x="255.5" y="421.962">tipoAbono: String</text><line style="stroke:#181818;stroke-width:0.5;" x1="236.5" x2="392.5" y1="429.2637" y2="429.2637"/><ellipse cx="246.5" cy="442.9122" fill="#84BE84" rx="3" ry="3" style="stroke:#038048;stroke-width:1.0;"/><text fill="#000000" font-family="sans-serif" font-size="14" lengthAdjust="spacing" textLength="63" x="255.5" y="446.2589">esperar()</text><ellipse cx="246.5" cy="459.2091" fill="#84BE84" rx="3" ry="3" style="stroke:#038048;stroke-width:1.0;"/><text fill="#000000" font-family="sans-serif" font-size="14" lengthAdjust="spacing" textLength="94" x="255.5" y="462.5557">realizarPago()</text><ellipse cx="246.5" cy="475.5059" fill="#84BE84" rx="3" ry="3" style="stroke:#038048;stroke-width:1.0;"/><text fill="#000000" font-family="sans-serif" font-size="14" lengthAdjust="spacing" textLength="132" x="255.5" y="478.8526">subirAlTransporte()</text></g><!--class Ruta--><g id="elem_Ruta"><rect codeLine="24" fill="#F1F1F1" height="96.8906" id="Ruta" rx="2.5" ry="2.5" style="stroke:#181818;stroke-width:0.5;" width="129" x="7" y="516.16"/><ellipse cx="51.25" cy="532.16" fill="#ADD1B2" rx="11" ry="11" style="stroke:#181818;stroke-width:1.0;"/><path d="M54.2188,537.8006 Q53.6406,538.0975 53,538.2381 Q52.3594,538.3944 51.6563,538.3944 Q49.1563,538.3944 47.8281,536.7538 Q46.5156,535.0975 46.5156,531.9725 Q46.5156,528.8475 47.8281,527.1913 Q49.1563,525.535 51.6563,525.535 Q52.3594,525.535 53,525.6913 Q53.6563,525.8475 54.2188,526.1444 L54.2188,528.8631 Q53.5938,528.285 53,528.0194 Q52.4063,527.7381 51.7813,527.7381 Q50.4375,527.7381 49.75,528.8163 Q49.0625,529.8788 49.0625,531.9725 Q49.0625,534.0663 49.75,535.1444 Q50.4375,536.2069 51.7813,536.2069 Q52.4063,536.2069 53,535.9413 Q53.5938,535.66 54.2188,535.0819 L54.2188,537.8006 Z " fill="#000000"/><text fill="#000000" font-family="sans-serif" font-size="14" lengthAdjust="spacing" textLength="32" x="71.75" y="537.0067">Ruta</text><line style="stroke:#181818;stroke-width:0.5;" x1="8" x2="135" y1="548.16" y2="548.16"/><ellipse cx="18" cy="561.8084" fill="none" rx="3" ry="3" style="stroke:#038048;stroke-width:1.0;"/><text fill="#000000" font-family="sans-serif" font-size="14" lengthAdjust="spacing" textLength="103" x="27" y="565.1551">nombre: String</text><ellipse cx="18" cy="578.1053" fill="none" rx="3" ry="3" style="stroke:#038048;stroke-width:1.0;"/><text fill="#000000" font-family="sans-serif" font-size="14" lengthAdjust="spacing" textLength="97" x="27" y="581.452">horario: String</text><ellipse cx="18" cy="594.4022" fill="none" rx="3" ry="3" style="stroke:#038048;stroke-width:1.0;"/><text fill="#000000" font-family="sans-serif" font-size="14" lengthAdjust="spacing" textLength="96" x="27" y="597.7489">parada: String</text><line style="stroke:#181818;stroke-width:0.5;" x1="8" x2="135" y1="605.0506" y2="605.0506"/></g><!--class Tarifa--><g id="elem_Tarifa"><rect codeLine="30" fill="#F1F1F1" height="80.5938" id="Tarifa" rx="2.5" ry="2.5" style="stroke:#181818;stroke-width:0.5;" width="113" x="150" y="690.05"/><ellipse cx="184.8" cy="706.05" fill="#ADD1B2" rx="11" ry="11" style="stroke:#181818;stroke-width:1.0;"/><path d="M187.7688,711.6906 Q187.1906,711.9875 186.55,712.1281 Q185.9094,712.2844 185.2063,712.2844 Q182.7063,712.2844 181.3781,710.6438 Q180.0656,708.9875 180.0656,705.8625 Q180.0656,702.7375 181.3781,701.0813 Q182.7063,699.425 185.2063,699.425 Q185.9094,699.425 186.55,699.5813 Q187.2063,699.7375 187.7688,700.0344 L187.7688,702.7531 Q187.1438,702.175 186.55,701.9094 Q185.9563,701.6281 185.3313,701.6281 Q183.9875,701.6281 183.3,702.7063 Q182.6125,703.7688 182.6125,705.8625 Q182.6125,707.9563 183.3,709.0344 Q183.9875,710.0969 185.3313,710.0969 Q185.9563,710.0969 186.55,709.8313 Q187.1438,709.55 187.7688,708.9719 L187.7688,711.6906 Z " fill="#000000"/><text fill="#000000" font-family="sans-serif" font-size="14" lengthAdjust="spacing" textLength="37" x="203.2" y="710.8967">Tarifa</text><line style="stroke:#181818;stroke-width:0.5;" x1="151" x2="262" y1="722.05" y2="722.05"/><ellipse cx="161" cy="735.6984" fill="none" rx="3" ry="3" style="stroke:#038048;stroke-width:1.0;"/><text fill="#000000" font-family="sans-serif" font-size="14" lengthAdjust="spacing" textLength="87" x="170" y="739.0451">monto: Float</text><line style="stroke:#181818;stroke-width:0.5;" x1="151" x2="262" y1="746.3469" y2="746.3469"/><ellipse cx="161" cy="759.9953" fill="#84BE84" rx="3" ry="3" style="stroke:#038048;stroke-width:1.0;"/><text fill="#000000" font-family="sans-serif" font-size="14" lengthAdjust="spacing" textLength="62" x="170" y="763.342">calcular()</text></g><!--link Vehiculo to Conductor--><g id="link_Vehiculo_Conductor"><path codeLine="35" d="M225.63,136.96 C222.19,146.83 218.72,156.92 215.5,166.48 C210.42,181.56 206.9162,192.2179 202.0462,207.3679 " fill="none" id="Vehiculo-to-Conductor" style="stroke:#181818;stroke-width:1.0;"/><polygon fill="#181818" points="200.21,213.08,206.7724,205.7359,201.7401,208.3199,199.1562,203.2877,200.21,213.08" style="stroke:#181818;stroke-width:1.0;"/><text fill="#000000" font-family="sans-serif" font-size="13" lengthAdjust="spacing" textLength="54" x="216.5" y="179.5469">conduce</text><text fill="#000000" font-family="sans-serif" font-size="13" lengthAdjust="spacing" textLength="8" x="214.859" y="156.5328">1</text><text fill="#000000" font-family="sans-serif" font-size="13" lengthAdjust="spacing" textLength="8" x="193.8809" y="202.2948">1</text></g><!--link Vehiculo to Pasajero--><g id="link_Vehiculo_Pasajero"><path codeLine="36" d="M268.12,136.76 C270.81,146.66 273.37,156.81 275.5,166.48 C289.58,230.52 299.5865,298.7888 306.2065,350.3888 " fill="none" id="Vehiculo-to-Pasajero" style="stroke:#181818;stroke-width:1.0;"/><polygon fill="#181818" points="306.97,356.34,309.7922,346.9042,306.3337,351.3806,301.8573,347.9222,306.97,356.34" style="stroke:#181818;stroke-width:1.0;"/><text fill="#000000" font-family="sans-serif" font-size="13" lengthAdjust="spacing" textLength="67" x="279.5" y="179.5469">transporta</text><text fill="#000000" font-family="sans-serif" font-size="13" lengthAdjust="spacing" textLength="8" x="261.8284" y="156.7658">1</text><text fill="#000000" font-family="sans-serif" font-size="13" lengthAdjust="spacing" textLength="7" x="298.7636" y="345.4766">*</text></g><!--link Conductor to Ruta--><g id="link_Conductor_Ruta"><path codeLine="37" d="M156.93,326.98 C152.64,336.82 148.34,347 144.5,356.67 C123.03,410.65 103.1438,468.0601 89.0238,510.2601 " fill="none" id="Conductor-to-Ruta" style="stroke:#181818;stroke-width:1.0;"/><polygon fill="#181818" points="87.12,515.95,93.769,508.6843,88.7065,511.2084,86.1825,506.1459,87.12,515.95" style="stroke:#181818;stroke-width:1.0;"/><text fill="#000000" font-family="sans-serif" font-size="13" lengthAdjust="spacing" textLength="34" x="145.5" y="425.9769">sigue</text><text fill="#000000" font-family="sans-serif" font-size="13" lengthAdjust="spacing" textLength="8" x="145.3262" y="346.9045">1</text><text fill="#000000" font-family="sans-serif" font-size="13" lengthAdjust="spacing" textLength="8" x="80.7541" y="505.1294">1</text></g><!--link Conductor to Tarifa--><g id="link_Conductor_Tarifa"><path codeLine="38" d="M185.42,326.81 C190.33,420.67 199.8368,602.0382 204.1068,683.7282 " fill="none" id="Conductor-to-Tarifa" style="stroke:#181818;stroke-width:1.0;"/><polygon fill="#181818" points="204.42,689.72,207.9448,680.5235,204.159,684.7268,199.9557,680.9411,204.42,689.72" style="stroke:#181818;stroke-width:1.0;"/><text fill="#000000" font-family="sans-serif" font-size="13" lengthAdjust="spacing" textLength="36" x="201.5" y="569.1669">cobra</text><text fill="#000000" font-family="sans-serif" font-size="13" lengthAdjust="spacing" textLength="8" x="177.2884" y="346.7138">1</text><text fill="#000000" font-family="sans-serif" font-size="13" lengthAdjust="spacing" textLength="8" x="195.451" y="679.1273">1</text></g><!--link Pasajero to Tarifa--><g id="link_Pasajero_Tarifa"><path codeLine="39" d="M294.82,486.29 C283.09,523.47 267.59,571.13 252.5,613.05 C243.23,638.79 234.2049,661.7998 225.1249,684.1898 " fill="none" id="Pasajero-to-Tarifa" style="stroke:#181818;stroke-width:1.0;"/><polygon fill="#181818" points="222.87,689.75,229.9591,682.913,224.7491,685.1165,222.5455,679.9065,222.87,689.75" style="stroke:#181818;stroke-width:1.0;"/><text fill="#000000" font-family="sans-serif" font-size="13" lengthAdjust="spacing" textLength="32" x="285.5" y="569.1669">paga</text></g><!--link Ruta to Tarifa--><g id="link_Ruta_Tarifa"><path codeLine="40" d="M103.75,613.21 C114.65,628.52 127.19,645.32 139.5,660.05 C147.76,669.93 152.9702,675.8065 162.0102,685.2465 " fill="none" id="Ruta-to-Tarifa" style="stroke:#181818;stroke-width:1.0;"/><polygon fill="#181818" points="166.16,689.58,162.8242,680.3133,162.7018,685.9688,157.0463,685.8464,166.16,689.58" style="stroke:#181818;stroke-width:1.0;"/><text fill="#000000" font-family="sans-serif" font-size="13" lengthAdjust="spacing" textLength="39" x="140.5" y="656.1169">define</text></g><!--SRC=[VP5DJyCm38Rl_HLHJtne1wuz84qW96uJJDpTnEkCChjoaWk8_qxQqgzfB9V4R-ptYHth8GJpWKUooOlvBanUznWYEAdCUrJYPj28oHBeMufmSpj8BQG0EaQAmCdDiVVOW3vdBsB9uazHs9xs9EoIZQ8ZZkLKArx43RcMX6UeBfaDXPY5LxRaa2CkGJi8y8agrpYHMjdMmcVTOcXnnG5FNw0xQ6JKGgf9jtwlmA4LNQExCLt37YMxqncqQyt1f4rc-vnwcEnEmZ4NldY1E2WMVFwz_hMvPlhCyg4qcyrZlyyphupjptWXyQwSPrQPE7O6nLo-DEsRh4oW9k4_ANzFxw2rGZ6vT_VJNGiD5BtPIdPu8CPV]--></g></svg>