<svg xmlns="http://www.w3.org/2000/svg" xmlns:xlink="http://www.w3.org/1999/xlink" contentStyleType="text/css" height="512px" preserveAspectRatio="none" style="width:180px;height:512px;background:#FFFFFF;" version="1.1" viewBox="0 0 180 512" width="180px" zoomAndPan="magnify"><defs/><g><ellipse cx="84.86" cy="16" fill="#222222" rx="10" ry="10" style="stroke:#222222;stroke-width:1.0;"/><g id="Parado"><rect fill="#F1F1F1" height="50" rx="12.5" ry="12.5" style="stroke:#181818;stroke-width:0.5;" width="68" x="50.86" y="103"/><line style="stroke:#181818;stroke-width:0.5;" x1="50.86" x2="118.86" y1="129.2969" y2="129.2969"/><text fill="#000000" font-family="sans-serif" font-size="14" lengthAdjust="spacing" textLength="48" x="60.86" y="120.9951">Parado</text></g><g id="Conduciendo"><rect fill="#F1F1F1" height="50" rx="12.5" ry="12.5" style="stroke:#181818;stroke-width:0.5;" width="113" x="28.36" y="230"/><line style="stroke:#181818;stroke-width:0.5;" x1="28.36" x2="141.36" y1="256.2969" y2="256.2969"/><text fill="#000000" font-family="sans-serif" font-size="14" lengthAdjust="spacing" textLength="93" x="38.36" y="247.9951">Conduciendo</text></g><g id="En_destino"><rect fill="#F1F1F1" height="50" rx="12.5" ry="12.5" style="stroke:#181818;stroke-width:0.5;" width="97" x="36.36" y="357"/><line style="stroke:#181818;stroke-width:0.5;" x1="36.36" x2="133.36" y1="383.2969" y2="383.2969"/><text fill="#000000" font-family="sans-serif" font-size="14" lengthAdjust="spacing" textLength="77" x="46.36" y="374.9951">En_destino</text></g><ellipse cx="84.86" cy="495" fill="none" rx="11" ry="11" style="stroke:#222222;stroke-width:1.0;"/><ellipse cx="84.86" cy="495" fill="#222222" rx="6" ry="6" style="stroke:#222222;stroke-width:1.0;"/><!--link *start* to Parado--><g id="link_*start*_Parado"><path d="M84.86,26.38 C84.86,43.11 84.86,72.59 84.86,96.63 " fill="none" id="*start*-to-Parado" style="stroke:#181818;stroke-width:1.0;"/><polygon fill="#181818" points="84.86,102.63,88.86,93.63,84.86,97.63,80.86,93.63,84.86,102.63" style="stroke:#181818;stroke-width:1.0;"/><text fill="#000000" font-family="sans-serif" font-size="13" lengthAdjust="spacing" textLength="32" x="85.86" y="69.0669">inicia</text></g><!--link Parado to Conduciendo--><g id="link_Parado_Conduciendo"><path d="M50.53,146.39 C36.79,155.31 22.44,167.57 14.86,183 C6,201.02 14.6482,213.8158 32.1082,226.2158 " fill="none" id="Parado-to-Conduciendo" style="stroke:#181818;stroke-width:1.0;"/><polygon fill="#181818" points="37,229.69,31.9783,221.2175,32.9235,226.7949,27.3461,227.74,37,229.69" style="stroke:#181818;stroke-width:1.0;"/><text fill="#000000" font-family="sans-serif" font-size="13" lengthAdjust="spacing" textLength="92" x="15.86" y="196.0669">en conducci&#243;n</text></g><!--link Conduciendo to Parado--><g id="link_Conduciendo_Parado"><path d="M102.62,229.57 C110.3,216.12 116.75,198.96 112.86,183 C110.36,172.74 108.4389,167.5132 103.4889,158.5432 " fill="none" id="Conduciendo-to-Parado" style="stroke:#181818;stroke-width:1.0;"/><polygon fill="#181818" points="100.59,153.29,101.4363,163.1024,103.0058,157.6677,108.4405,159.2372,100.59,153.29" style="stroke:#181818;stroke-width:1.0;"/><text fill="#000000" font-family="sans-serif" font-size="13" lengthAdjust="spacing" textLength="58" x="114.86" y="196.0669">incidente</text></g><!--link Conduciendo to En_destino--><g id="link_Conduciendo_En_destino"><path d="M84.86,280.4 C84.86,302.42 84.86,328.66 84.86,350.66 " fill="none" id="Conduciendo-to-En_destino" style="stroke:#181818;stroke-width:1.0;"/><polygon fill="#181818" points="84.86,356.66,88.86,347.66,84.86,351.66,80.86,347.66,84.86,356.66" style="stroke:#181818;stroke-width:1.0;"/><text fill="#000000" font-family="sans-serif" font-size="13" lengthAdjust="spacing" textLength="81" x="85.86" y="323.0669">llega destino</text></g><!--link En_destino to *end*--><g id="link_En_destino_*end*"><path d="M84.86,407.36 C84.86,431.23 84.86,460.46 84.86,477.71 " fill="none" id="En_destino-to-*end*" style="stroke:#181818;stroke-width:1.0;"/><polygon fill="#181818" points="84.86,483.71,88.86,474.71,84.86,478.71,80.86,474.71,84.86,483.71" style="stroke:#181818;stroke-width:1.0;"/><text fill="#000000" font-family="sans-serif" font-size="13" lengthAdjust="spacing" textLength="15" x="85.86" y="450.0669">fin</text></g><!--SRC=[YzQALT3LjLC8I2nAJCbNi5B8pCjCpapaWl91KixvUIcboPcfUM3vr3o5PB10SkRXpNbSo98WnQvvyIcfnIMPUI2rEJcfwOaAK3w6KYGhapDJKlDAKhcGT8DKH0CTPwMGbfa70000]--></g></svg>