<svg xmlns="http://www.w3.org/2000/svg" xmlns:xlink="http://www.w3.org/1999/xlink" contentStyleType="text/css" height="970px" preserveAspectRatio="none" style="width:1083px;height:970px;background:#FFFFFF;" version="1.1" viewBox="0 0 1083 970" width="1083px" zoomAndPan="magnify"><defs/><g><!--cluster Vehiculo--><g id="cluster_Vehiculo"><rect fill="none" height="572" rx="12.5" ry="12.5" style="stroke:#181818;stroke-width:0.5;" width="364" x="7" y="7"/><path d="M76,7 L76,16.2969 L66,26.2969 L7,26.2969 " fill="none" style="stroke:#181818;stroke-width:0.5;"/><text fill="#000000" font-family="sans-serif" font-size="14" lengthAdjust="spacing" textLength="59" x="10" y="20.9951">Vehiculo</text></g><!--cluster Conductor--><g id="cluster_Conductor"><rect fill="none" height="329" rx="12.5" ry="12.5" style="stroke:#181818;stroke-width:0.5;" width="264" x="395" y="506"/><path d="M478,506 L478,515.2969 L468,525.2969 L395,525.2969 " fill="none" style="stroke:#181818;stroke-width:0.5;"/><text fill="#000000" font-family="sans-serif" font-size="14" lengthAdjust="spacing" textLength="73" x="398" y="519.9951">Conductor</text></g><!--cluster Pasajero--><g id="cluster_Pasajero"><rect fill="none" height="458" rx="12.5" ry="12.5" style="stroke:#181818;stroke-width:0.5;" width="300" x="683" y="506"/><path d="M752,506 L752,515.2969 L742,525.2969 L683,525.2969 " fill="none" style="stroke:#181818;stroke-width:0.5;"/><text fill="#000000" font-family="sans-serif" font-size="14" lengthAdjust="spacing" textLength="59" x="686" y="519.9951">Pasajero</text></g><ellipse cx="189" cy="52" fill="#222222" rx="10" ry="10" style="stroke:#222222;stroke-width:1.0;"/><g id="Vehiculo.Fuera_de_servicio"><rect fill="#F1F1F1" height="50" rx="12.5" ry="12.5" style="stroke:#181818;stroke-width:0.5;" width="143" x="117.5" y="139"/><line style="stroke:#181818;stroke-width:0.5;" x1="117.5" x2="260.5" y1="165.2969" y2="165.2969"/><text fill="#000000" font-family="sans-serif" font-size="14" lengthAdjust="spacing" textLength="123" x="127.5" y="156.9951">Fuera_de_servicio</text></g><g id="Vehiculo.En_ruta"><rect fill="#F1F1F1" height="50" rx="12.5" ry="12.5" style="stroke:#181818;stroke-width:0.5;" width="72" x="153" y="266"/><line style="stroke:#181818;stroke-width:0.5;" x1="153" x2="225" y1="292.2969" y2="292.2969"/><text fill="#000000" font-family="sans-serif" font-size="14" lengthAdjust="spacing" textLength="52" x="163" y="283.9951">En_ruta</text></g><g id="Vehiculo.En_parada"><rect fill="#F1F1F1" height="50" rx="12.5" ry="12.5" style="stroke:#181818;stroke-width:0.5;" width="92" x="40" y="393"/><line style="stroke:#181818;stroke-width:0.5;" x1="40" x2="132" y1="419.2969" y2="419.2969"/><text fill="#000000" font-family="sans-serif" font-size="14" lengthAdjust="spacing" textLength="72" x="50" y="410.9951">En_parada</text></g><g id="Vehiculo.En_destino"><rect fill="#F1F1F1" height="50" rx="12.5" ry="12.5" style="stroke:#181818;stroke-width:0.5;" width="97" x="258.5" y="393"/><line style="stroke:#181818;stroke-width:0.5;" x1="258.5" x2="355.5" y1="419.2969" y2="419.2969"/><text fill="#000000" font-family="sans-serif" font-size="14" lengthAdjust="spacing" textLength="77" x="268.5" y="410.9951">En_destino</text></g><ellipse cx="275" cy="552" fill="none" rx="11" ry="11" style="stroke:#222222;stroke-width:1.0;"/><ellipse cx="275" cy="552" fill="#222222" rx="6" ry="6" style="stroke:#222222;stroke-width:1.0;"/><ellipse cx="433" cy="552" fill="#222222" rx="10" ry="10" style="stroke:#222222;stroke-width:1.0;"/><g id="Conductor.Parado"><rect fill="#F1F1F1" height="50" rx="12.5" ry="12.5" style="stroke:#181818;stroke-width:0.5;" width="68" x="431" y="642"/><line style="stroke:#181818;stroke-width:0.5;" x1="431" x2="499" y1="668.2969" y2="668.2969"/><text fill="#000000" font-family="sans-serif" font-size="14" lengthAdjust="spacing" textLength="48" x="441" y="659.9951">Parado</text></g><g id="Conductor.Conduciendo"><rect fill="#F1F1F1" height="50" rx="12.5" ry="12.5" style="stroke:#181818;stroke-width:0.5;" width="113" x="410.5" y="769"/><line style="stroke:#181818;stroke-width:0.5;" x1="410.5" x2="523.5" y1="795.2969" y2="795.2969"/><text fill="#000000" font-family="sans-serif" font-size="14" lengthAdjust="spacing" textLength="93" x="420.5" y="786.9951">Conduciendo</text></g><ellipse cx="489" cy="552" fill="none" rx="11" ry="11" style="stroke:#222222;stroke-width:1.0;"/><ellipse cx="489" cy="552" fill="#222222" rx="6" ry="6" style="stroke:#222222;stroke-width:1.0;"/><ellipse cx="725" cy="552" fill="#222222" rx="10" ry="10" style="stroke:#222222;stroke-width:1.0;"/><g id="Pasajero.En_espera"><rect fill="#F1F1F1" height="50" rx="12.5" ry="12.5" style="stroke:#181818;stroke-width:0.5;" width="93" x="699.5" y="642"/><line style="stroke:#181818;stroke-width:0.5;" x1="699.5" x2="792.5" y1="668.2969" y2="668.2969"/><text fill="#000000" font-family="sans-serif" font-size="14" lengthAdjust="spacing" textLength="73" x="709.5" y="659.9951">En_espera</text></g><g id="Pasajero.Pagando"><rect fill="#F1F1F1" height="50" rx="12.5" ry="12.5" style="stroke:#181818;stroke-width:0.5;" width="81" x="813.5" y="769"/><line style="stroke:#181818;stroke-width:0.5;" x1="813.5" x2="894.5" y1="795.2969" y2="795.2969"/><text fill="#000000" font-family="sans-serif" font-size="14" lengthAdjust="spacing" textLength="61" x="823.5" y="786.9951">Pagando</text></g><g id="Pasajero.En_transporte"><rect fill="#F1F1F1" height="50" rx="12.5" ry="12.5" style="stroke:#181818;stroke-width:0.5;" width="117" x="829.5" y="898"/><line style="stroke:#181818;stroke-width:0.5;" x1="829.5" x2="946.5" y1="924.2969" y2="924.2969"/><text fill="#000000" font-family="sans-serif" font-size="14" lengthAdjust="spacing" textLength="97" x="839.5" y="915.9951">En_transporte</text></g><ellipse cx="781" cy="552" fill="none" rx="11" ry="11" style="stroke:#222222;stroke-width:1.0;"/><ellipse cx="781" cy="552" fill="#222222" rx="6" ry="6" style="stroke:#222222;stroke-width:1.0;"/><!--link *start*Vehiculo to Fuera_de_servicio--><g id="link_*start*Vehiculo_Fuera_de_servicio"><path d="M189,62.38 C189,79.11 189,108.59 189,132.63 " fill="none" id="*start*Vehiculo-to-Fuera_de_servicio" style="stroke:#181818;stroke-width:1.0;"/><polygon fill="#181818" points="189,138.63,193,129.63,189,133.63,185,129.63,189,138.63" style="stroke:#181818;stroke-width:1.0;"/><text fill="#000000" font-family="sans-serif" font-size="13" lengthAdjust="spacing" textLength="32" x="190" y="105.0669">inicia</text></g><!--link Fuera_de_servicio to En_ruta--><g id="link_Fuera_de_servicio_En_ruta"><path d="M189,189.4 C189,211.42 189,237.66 189,259.66 " fill="none" id="Fuera_de_servicio-to-En_ruta" style="stroke:#181818;stroke-width:1.0;"/><polygon fill="#181818" points="189,265.66,193,256.66,189,260.66,185,256.66,189,265.66" style="stroke:#181818;stroke-width:1.0;"/><text fill="#000000" font-family="sans-serif" font-size="13" lengthAdjust="spacing" textLength="65" x="190" y="232.0669">inicia_ruta</text></g><!--link En_ruta to En_parada--><g id="link_En_ruta_En_parada"><path d="M174.78,316.26 C166.04,330.43 154.2,348.34 142,363 C133.45,373.28 127.4935,379.5618 118.0635,388.4618 " fill="none" id="En_ruta-to-En_parada" style="stroke:#181818;stroke-width:1.0;"/><polygon fill="#181818" points="113.7,392.58,122.9907,389.3116,117.3362,389.1481,117.4997,383.4936,113.7,392.58" style="stroke:#181818;stroke-width:1.0;"/><text fill="#000000" font-family="sans-serif" font-size="13" lengthAdjust="spacing" textLength="39" x="155" y="359.0669">pausa</text></g><!--link En_parada to En_ruta--><g id="link_En_parada_En_ruta"><path d="M76.49,392.6 C72.45,378.04 70.42,359.77 79,346 C87.47,332.41 118.4054,318.308 147.0754,307.198 " fill="none" id="En_parada-to-En_ruta" style="stroke:#181818;stroke-width:1.0;"/><polygon fill="#181818" points="152.67,305.03,142.8327,304.5522,148.0078,306.8367,145.7234,312.0117,152.67,305.03" style="stroke:#181818;stroke-width:1.0;"/><text fill="#000000" font-family="sans-serif" font-size="13" lengthAdjust="spacing" textLength="53" x="80" y="359.0669">reanuda</text></g><!--link En_ruta to En_destino--><g id="link_En_ruta_En_destino"><path d="M212.03,316.4 C232.82,338.42 259.13,366.2981 279.91,388.2981 " fill="none" id="En_ruta-to-En_destino" style="stroke:#181818;stroke-width:1.0;"/><polygon fill="#181818" points="284.03,392.66,280.7579,383.3706,280.5967,389.0251,274.9421,388.8639,284.03,392.66" style="stroke:#181818;stroke-width:1.0;"/><text fill="#000000" font-family="sans-serif" font-size="13" lengthAdjust="spacing" textLength="84" x="256" y="359.0669">llega_destino</text></g><!--link En_destino to Fuera_de_servicio--><g id="link_En_destino_Fuera_de_servicio"><path d="M333.65,392.75 C344.78,379.63 354.08,362.72 349,346 C329.26,281.01 311.2,267.84 264,219 C253.52,208.15 245.5304,201.4378 233.4104,192.9278 " fill="none" id="En_destino-to-Fuera_de_servicio" style="stroke:#181818;stroke-width:1.0;"/><polygon fill="#181818" points="228.5,189.48,233.5671,197.9254,232.592,192.3532,238.1642,191.3781,228.5,189.48" style="stroke:#181818;stroke-width:1.0;"/><text fill="#000000" font-family="sans-serif" font-size="13" lengthAdjust="spacing" textLength="58" x="339" y="295.5669">incidente</text></g><!--link En_parada to Fuera_de_servicio--><g id="link_En_parada_Fuera_de_servicio"><path d="M74.29,392.57 C70.54,383.5 66.87,372.99 65,363 C57,320.36 55.62,304.3 76,266 C93,234.06 119.4302,210.7529 144.8002,192.8229 " fill="none" id="En_parada-to-Fuera_de_servicio" style="stroke:#181818;stroke-width:1.0;"/><polygon fill="#181818" points="149.7,189.36,140.0417,191.2878,145.6168,192.2458,144.6589,197.8209,149.7,189.36" style="stroke:#181818;stroke-width:1.0;"/><text fill="#000000" font-family="sans-serif" font-size="13" lengthAdjust="spacing" textLength="58" x="77" y="295.5669">incidente</text></g><!--link En_destino to *end*Vehiculo--><g id="link_En_destino_*end*Vehiculo"><path d="M301.13,443.21 C294.06,472.39 283.9135,514.2389 278.8835,534.9889 " fill="none" id="En_destino-to-*end*Vehiculo" style="stroke:#181818;stroke-width:1.0;"/><polygon fill="#181818" points="277.47,540.82,283.4777,533.0157,278.6479,535.9607,275.7029,531.131,277.47,540.82" style="stroke:#181818;stroke-width:1.0;"/><text fill="#000000" font-family="sans-serif" font-size="13" lengthAdjust="spacing" textLength="15" x="294" y="486.0669">fin</text></g><!--link *start*Conductor to Parado--><g id="link_*start*Conductor_Parado"><path d="M435.51,561.87 C440.34,578.93 449.4566,611.0966 456.5466,636.1566 " fill="none" id="*start*Conductor-to-Parado" style="stroke:#181818;stroke-width:1.0;"/><polygon fill="#181818" points="458.18,641.93,459.5788,632.181,456.8188,637.1188,451.881,634.3589,458.18,641.93" style="stroke:#181818;stroke-width:1.0;"/><text fill="#000000" font-family="sans-serif" font-size="13" lengthAdjust="spacing" textLength="32" x="450" y="608.0669">inicia</text></g><!--link Parado to Conduciendo--><g id="link_Parado_Conduciendo"><path d="M450.98,692.35 C444.82,705.92 439.65,723.22 443,739 C445.15,749.14 446.7699,754.2583 451.0599,763.3083 " fill="none" id="Parado-to-Conduciendo" style="stroke:#181818;stroke-width:1.0;"/><polygon fill="#181818" points="453.63,768.73,453.3894,758.8841,451.4883,764.2119,446.1604,762.3108,453.63,768.73" style="stroke:#181818;stroke-width:1.0;"/><text fill="#000000" font-family="sans-serif" font-size="13" lengthAdjust="spacing" textLength="95" x="444" y="735.0669">en_conduccion</text></g><!--link Conduciendo to Parado--><g id="link_Conduciendo_Parado"><path d="M520.72,768.62 C539.46,756.42 553.68,740.33 544,722 C534.54,704.08 521.4533,693.7762 504.8033,684.9662 " fill="none" id="Conduciendo-to-Parado" style="stroke:#181818;stroke-width:1.0;"/><polygon fill="#181818" points="499.5,682.16,505.5843,689.9048,503.9195,684.4985,509.3258,682.8337,499.5,682.16" style="stroke:#181818;stroke-width:1.0;"/><text fill="#000000" font-family="sans-serif" font-size="13" lengthAdjust="spacing" textLength="58" x="548" y="735.0669">incidente</text></g><!--link Conduciendo to En_destino--><g id="link_Conduciendo_En_destino"><path d="M447.54,768.77 C421.7,735.41 376.4,672.58 351,612 C338.24,581.57 320.9752,494.1173 312.5852,449.3473 " fill="none" id="Conduciendo-to-En_destino" style="stroke:#181818;stroke-width:1.0;"/><polygon fill="#181818" points="311.48,443.45,309.2062,453.0328,312.401,448.3644,317.0693,451.5592,311.48,443.45" style="stroke:#181818;stroke-width:1.0;"/><text fill="#000000" font-family="sans-serif" font-size="13" lengthAdjust="spacing" textLength="84" x="352" y="608.0669">llega_destino</text></g><!--link En_destino to *end*Conductor--><g id="link_En_destino_*end*Conductor"><path d="M355.84,435.16 C388.75,448.03 431.4,468.75 461,498 C473.58,510.43 479.7928,524.0757 483.8928,535.6257 " fill="none" id="En_destino-to-*end*Conductor" style="stroke:#181818;stroke-width:1.0;"/><polygon fill="#181818" points="485.9,541.28,486.6588,531.4604,484.2274,536.5681,479.1197,534.1366,485.9,541.28" style="stroke:#181818;stroke-width:1.0;"/><text fill="#000000" font-family="sans-serif" font-size="13" lengthAdjust="spacing" textLength="15" x="451" y="486.0669">fin</text></g><!--link *start*Pasajero to En_espera--><g id="link_*start*Pasajero_En_espera"><path d="M726.72,562.25 C729.91,579.43 735.7646,610.8908 740.3846,635.7708 " fill="none" id="*start*Pasajero-to-En_espera" style="stroke:#181818;stroke-width:1.0;"/><polygon fill="#181818" points="741.48,641.67,743.7696,632.091,740.5671,636.754,735.9041,633.5515,741.48,641.67" style="stroke:#181818;stroke-width:1.0;"/><text fill="#000000" font-family="sans-serif" font-size="13" lengthAdjust="spacing" textLength="32" x="736" y="608.0669">inicia</text></g><!--link En_espera to Pagando--><g id="link_En_espera_Pagando"><path d="M732.31,692.37 C726.11,706.91 721.98,725.18 731,739 C749.04,766.63 778.8782,778.8414 807.1782,785.4714 " fill="none" id="En_espera-to-Pagando" style="stroke:#181818;stroke-width:1.0;"/><polygon fill="#181818" points="813.02,786.84,805.1697,780.8926,808.1518,785.6995,803.3449,788.6817,813.02,786.84" style="stroke:#181818;stroke-width:1.0;"/><text fill="#000000" font-family="sans-serif" font-size="13" lengthAdjust="spacing" textLength="78" x="732" y="735.0669">llega_el_bus</text></g><!--link Pagando to En_espera--><g id="link_Pagando_En_espera"><path d="M843.72,768.79 C836.86,754.3 826.93,736.04 815,722 C805.74,711.11 798.7543,704.5641 787.5743,696.0541 " fill="none" id="Pagando-to-En_espera" style="stroke:#181818;stroke-width:1.0;"/><polygon fill="#181818" points="782.8,692.42,787.5387,701.0539,786.7785,695.4484,792.3841,694.6883,782.8,692.42" style="stroke:#181818;stroke-width:1.0;"/><text fill="#000000" font-family="sans-serif" font-size="13" lengthAdjust="spacing" textLength="111" x="827" y="735.0669">error_en_el_pago</text></g><!--link Pagando to En_transporte--><g id="link_Pagando_En_transporte"><path d="M856.11,819.33 C857.73,833.68 860.49,852.09 865,868 C867.83,878 869.6243,883.1166 873.6843,892.2566 " fill="none" id="Pagando-to-En_transporte" style="stroke:#181818;stroke-width:1.0;"/><polygon fill="#181818" points="876.12,897.74,876.122,887.8911,874.0902,893.1705,868.8108,891.1388,876.12,897.74" style="stroke:#181818;stroke-width:1.0;"/><text fill="#000000" font-family="sans-serif" font-size="13" lengthAdjust="spacing" textLength="97" x="866" y="864.0669">pago_realizado</text></g><!--link En_transporte to En_destino--><g id="link_En_transporte_En_destino"><path d="M935.67,897.54 C947.62,889.5 959.45,879.6 968,868 C988.1,840.72 990,828.89 990,795 C990,551 990,551 990,551 C990,486.35 518.1452,438.0447 361.8252,423.7947 " fill="none" id="En_transporte-to-En_destino" style="stroke:#181818;stroke-width:1.0;"/><polygon fill="#181818" points="355.85,423.25,364.4497,428.0505,360.8294,423.7039,365.176,420.0836,355.85,423.25" style="stroke:#181818;stroke-width:1.0;"/><text fill="#000000" font-family="sans-serif" font-size="13" lengthAdjust="spacing" textLength="84" x="991" y="671.5669">llega_destino</text></g><!--link En_destino to *end*Pasajero--><g id="link_En_destino_*end*Pasajero"><path d="M355.62,422.26 C457.7,429.96 690.1,452.13 753,498 C767.46,508.55 773.4817,523.0809 776.9617,535.2609 " fill="none" id="En_destino-to-*end*Pasajero" style="stroke:#181818;stroke-width:1.0;"/><polygon fill="#181818" points="778.61,541.03,779.9836,531.2774,777.2364,536.2224,772.2914,533.4752,778.61,541.03" style="stroke:#181818;stroke-width:1.0;"/><text fill="#000000" font-family="sans-serif" font-size="13" lengthAdjust="spacing" textLength="15" x="736" y="486.0669">fin</text></g><!--SRC=[bP8zJyCm48Rt_0hFIFq37LWGp9rO4B8E-nACmZawsmnK_U_u8owk2LARARvxxkDzTIF39ufdV3Sgp5OS1n6_bxjNiTlTYwU035AZTCXVHXahzi9G_86C_KsdeaUI73oSqVpAVCsir08CEd4B17ScrkXb9qQWe3UxQ7JUKDfidd62-gveJVylHncDv75Z_bLyEo3vjXUZeU4q36Dszi6I3ifRxgmzf36TdsiifKkPGSeCabGv47UWZBRvAupeyMRwRN8EuE03kJ-KM8XkYMvT2leDbw4J53rbGPpbMt2hyfBgUo6pPHdbHtQ1oMx1de7SOjbZFgN9odWji_cE0kiI3NBxrJGk_000]--></g></svg>