<svg xmlns="http://www.w3.org/2000/svg" xmlns:xlink="http://www.w3.org/1999/xlink" contentStyleType="text/css" height="857px" preserveAspectRatio="none" style="width:1108px;height:857px;background:#FFFFFF;" version="1.1" viewBox="0 0 1108 857" width="1108px" zoomAndPan="magnify"><defs/><g><!--cluster Vehiculo--><g id="cluster_Vehiculo"><rect fill="none" height="459" rx="12.5" ry="12.5" style="stroke:#181818;stroke-width:0.5;" width="389" x="7" y="7"/><path d="M76,7 L76,16.2969 L66,26.2969 L7,26.2969 " fill="none" style="stroke:#181818;stroke-width:0.5;"/><text fill="#000000" font-family="sans-serif" font-size="14" lengthAdjust="spacing" textLength="59" x="10" y="20.9951">Vehiculo</text></g><!--cluster Conductor--><g id="cluster_Conductor"><rect fill="none" height="343" rx="12.5" ry="12.5" style="stroke:#181818;stroke-width:0.5;" width="264" x="420" y="379"/><path d="M503,379 L503,388.2969 L493,398.2969 L420,398.2969 " fill="none" style="stroke:#181818;stroke-width:0.5;"/><text fill="#000000" font-family="sans-serif" font-size="14" lengthAdjust="spacing" textLength="73" x="423" y="392.9951">Conductor</text></g><!--cluster Pasajero--><g id="cluster_Pasajero"><rect fill="none" height="472" rx="12.5" ry="12.5" style="stroke:#181818;stroke-width:0.5;" width="300" x="708" y="379"/><path d="M777,379 L777,388.2969 L767,398.2969 L708,398.2969 " fill="none" style="stroke:#181818;stroke-width:0.5;"/><text fill="#000000" font-family="sans-serif" font-size="14" lengthAdjust="spacing" textLength="59" x="711" y="392.9951">Pasajero</text></g><ellipse cx="176" cy="52" fill="#222222" rx="10" ry="10" style="stroke:#222222;stroke-width:1.0;"/><g id="Vehiculo.En_ruta"><rect fill="#F1F1F1" height="50" rx="12.5" ry="12.5" style="stroke:#181818;stroke-width:0.5;" width="72" x="140" y="139"/><line style="stroke:#181818;stroke-width:0.5;" x1="140" x2="212" y1="165.2969" y2="165.2969"/><text fill="#000000" font-family="sans-serif" font-size="14" lengthAdjust="spacing" textLength="52" x="150" y="156.9951">En_ruta</text></g><g id="Vehiculo.Fuera_de_servicio"><rect fill="#F1F1F1" height="50" rx="12.5" ry="12.5" style="stroke:#181818;stroke-width:0.5;" width="143" x="113.5" y="400"/><line style="stroke:#181818;stroke-width:0.5;" x1="113.5" x2="256.5" y1="426.2969" y2="426.2969"/><text fill="#000000" font-family="sans-serif" font-size="14" lengthAdjust="spacing" textLength="123" x="123.5" y="417.9951">Fuera_de_servicio</text></g><g id="Vehiculo.En_parada"><rect fill="#F1F1F1" height="50" rx="12.5" ry="12.5" style="stroke:#181818;stroke-width:0.5;" width="92" x="23" y="266"/><line style="stroke:#181818;stroke-width:0.5;" x1="23" x2="115" y1="292.2969" y2="292.2969"/><text fill="#000000" font-family="sans-serif" font-size="14" lengthAdjust="spacing" textLength="72" x="33" y="283.9951">En_parada</text></g><g id="Vehiculo.En_destino"><rect fill="#F1F1F1" height="50" rx="12.5" ry="12.5" style="stroke:#181818;stroke-width:0.5;" width="97" x="283.5" y="266"/><line style="stroke:#181818;stroke-width:0.5;" x1="283.5" x2="380.5" y1="292.2969" y2="292.2969"/><text fill="#000000" font-family="sans-serif" font-size="14" lengthAdjust="spacing" textLength="77" x="293.5" y="283.9951">En_destino</text></g><ellipse cx="305" cy="425" fill="none" rx="11" ry="11" style="stroke:#222222;stroke-width:1.0;"/><ellipse cx="305" cy="425" fill="#222222" rx="6" ry="6" style="stroke:#222222;stroke-width:1.0;"/><ellipse cx="470" cy="425" fill="#222222" rx="10" ry="10" style="stroke:#222222;stroke-width:1.0;"/><g id="Conductor.Parado"><rect fill="#F1F1F1" height="50" rx="12.5" ry="12.5" style="stroke:#181818;stroke-width:0.5;" width="68" x="461" y="529"/><line style="stroke:#181818;stroke-width:0.5;" x1="461" x2="529" y1="555.2969" y2="555.2969"/><text fill="#000000" font-family="sans-serif" font-size="14" lengthAdjust="spacing" textLength="48" x="471" y="546.9951">Parado</text></g><g id="Conductor.Conduciendo"><rect fill="#F1F1F1" height="50" rx="12.5" ry="12.5" style="stroke:#181818;stroke-width:0.5;" width="113" x="435.5" y="656"/><line style="stroke:#181818;stroke-width:0.5;" x1="435.5" x2="548.5" y1="682.2969" y2="682.2969"/><text fill="#000000" font-family="sans-serif" font-size="14" lengthAdjust="spacing" textLength="93" x="445.5" y="673.9951">Conduciendo</text></g><ellipse cx="526" cy="425" fill="none" rx="11" ry="11" style="stroke:#222222;stroke-width:1.0;"/><ellipse cx="526" cy="425" fill="#222222" rx="6" ry="6" style="stroke:#222222;stroke-width:1.0;"/><ellipse cx="750" cy="425" fill="#222222" rx="10" ry="10" style="stroke:#222222;stroke-width:1.0;"/><g id="Pasajero.En_espera"><rect fill="#F1F1F1" height="50" rx="12.5" ry="12.5" style="stroke:#181818;stroke-width:0.5;" width="93" x="724.5" y="529"/><line style="stroke:#181818;stroke-width:0.5;" x1="724.5" x2="817.5" y1="555.2969" y2="555.2969"/><text fill="#000000" font-family="sans-serif" font-size="14" lengthAdjust="spacing" textLength="73" x="734.5" y="546.9951">En_espera</text></g><g id="Pasajero.Pagando"><rect fill="#F1F1F1" height="50" rx="12.5" ry="12.5" style="stroke:#181818;stroke-width:0.5;" width="81" x="838.5" y="656"/><line style="stroke:#181818;stroke-width:0.5;" x1="838.5" x2="919.5" y1="682.2969" y2="682.2969"/><text fill="#000000" font-family="sans-serif" font-size="14" lengthAdjust="spacing" textLength="61" x="848.5" y="673.9951">Pagando</text></g><g id="Pasajero.En_transporte"><rect fill="#F1F1F1" height="50" rx="12.5" ry="12.5" style="stroke:#181818;stroke-width:0.5;" width="117" x="854.5" y="785"/><line style="stroke:#181818;stroke-width:0.5;" x1="854.5" x2="971.5" y1="811.2969" y2="811.2969"/><text fill="#000000" font-family="sans-serif" font-size="14" lengthAdjust="spacing" textLength="97" x="864.5" y="802.9951">En_transporte</text></g><ellipse cx="806" cy="425" fill="none" rx="11" ry="11" style="stroke:#222222;stroke-width:1.0;"/><ellipse cx="806" cy="425" fill="#222222" rx="6" ry="6" style="stroke:#222222;stroke-width:1.0;"/><!--link *start*Vehiculo to En_ruta--><g id="link_*start*Vehiculo_En_ruta"><path d="M176,62.38 C176,79.11 176,108.59 176,132.63 " fill="none" id="*start*Vehiculo-to-En_ruta" style="stroke:#181818;stroke-width:1.0;"/><polygon fill="#181818" points="176,138.63,180,129.63,176,133.63,172,129.63,176,138.63" style="stroke:#181818;stroke-width:1.0;"/><text fill="#000000" font-family="sans-serif" font-size="13" lengthAdjust="spacing" textLength="32" x="177" y="105.0669">inicia</text></g><!--link Fuera_de_servicio to En_ruta--><g id="link_Fuera_de_servicio_En_ruta"><path d="M184.15,399.51 C182.43,350.04 178.7677,244.7264 177.0577,195.3664 " fill="none" id="Fuera_de_servicio-to-En_ruta" style="stroke:#181818;stroke-width:1.0;"/><polygon fill="#181818" points="176.85,189.37,173.164,198.5031,177.0231,194.367,181.1592,198.2261,176.85,189.37" style="stroke:#181818;stroke-width:1.0;"/><text fill="#000000" font-family="sans-serif" font-size="13" lengthAdjust="spacing" textLength="62" x="182" y="295.5669">inicia ruta</text></g><!--link En_ruta to En_parada--><g id="link_En_ruta_En_parada"><path d="M155.12,189.4 C136.26,211.42 112.5727,239.1027 93.7327,261.1027 " fill="none" id="En_ruta-to-En_parada" style="stroke:#181818;stroke-width:1.0;"/><polygon fill="#181818" points="89.83,265.66,98.7222,261.4259,93.0823,261.8623,92.6459,256.2223,89.83,265.66" style="stroke:#181818;stroke-width:1.0;"/><text fill="#000000" font-family="sans-serif" font-size="13" lengthAdjust="spacing" textLength="39" x="129" y="232.0669">pausa</text></g><!--link En_parada to En_ruta--><g id="link_En_parada_En_ruta"><path d="M54.81,265.66 C48.35,251.13 43.95,232.86 53,219 C72.06,189.81 104.9427,177.555 133.8827,171.365 " fill="none" id="En_parada-to-En_ruta" style="stroke:#181818;stroke-width:1.0;"/><polygon fill="#181818" points="139.75,170.11,130.1124,168.0809,134.8606,171.1558,131.7857,175.904,139.75,170.11" style="stroke:#181818;stroke-width:1.0;"/><text fill="#000000" font-family="sans-serif" font-size="13" lengthAdjust="spacing" textLength="53" x="54" y="232.0669">reanuda</text></g><!--link En_ruta to En_destino--><g id="link_En_ruta_En_destino"><path d="M206.45,189.4 C233.94,211.42 269.4768,239.9093 296.9468,261.9093 " fill="none" id="En_ruta-to-En_destino" style="stroke:#181818;stroke-width:1.0;"/><polygon fill="#181818" points="301.63,265.66,297.1056,256.9119,297.7273,262.5344,292.1047,263.1561,301.63,265.66" style="stroke:#181818;stroke-width:1.0;"/><text fill="#000000" font-family="sans-serif" font-size="13" lengthAdjust="spacing" textLength="81" x="264" y="232.0669">llega destino</text></g><!--link En_destino to Fuera_de_servicio--><g id="link_En_destino_Fuera_de_servicio"><path d="M289.24,316.28 C275.73,324.86 261.17,335.11 249,346 C230.99,362.12 217.3596,378.7 205.3396,395.01 " fill="none" id="En_destino-to-Fuera_de_servicio" style="stroke:#181818;stroke-width:1.0;"/><polygon fill="#181818" points="201.78,399.84,210.3394,394.968,204.7463,395.815,203.8994,390.2219,201.78,399.84" style="stroke:#181818;stroke-width:1.0;"/><text fill="#000000" font-family="sans-serif" font-size="13" lengthAdjust="spacing" textLength="58" x="250" y="359.0669">incidente</text></g><!--link En_parada to Fuera_de_servicio--><g id="link_En_parada_Fuera_de_servicio"><path d="M82.99,316.46 C91.65,330.69 103.49,348.61 116,363 C127.44,376.15 137.058,385.2863 149.608,395.8963 " fill="none" id="En_parada-to-Fuera_de_servicio" style="stroke:#181818;stroke-width:1.0;"/><polygon fill="#181818" points="154.19,399.77,149.8995,390.9048,150.3717,396.5419,144.7346,397.0141,154.19,399.77" style="stroke:#181818;stroke-width:1.0;"/><text fill="#000000" font-family="sans-serif" font-size="13" lengthAdjust="spacing" textLength="58" x="117" y="359.0669">incidente</text></g><!--link En_destino to *end*Vehiculo--><g id="link_En_destino_*end*Vehiculo"><path d="M327.05,316.21 C321.08,345.39 312.5339,387.192 308.2839,407.942 " fill="none" id="En_destino-to-*end*Vehiculo" style="stroke:#181818;stroke-width:1.0;"/><polygon fill="#181818" points="307.08,413.82,312.8045,405.8057,308.0833,408.9217,304.9672,404.2004,307.08,413.82" style="stroke:#181818;stroke-width:1.0;"/><text fill="#000000" font-family="sans-serif" font-size="13" lengthAdjust="spacing" textLength="15" x="321" y="359.0669">fin</text></g><!--link *start*Conductor to Parado--><g id="link_*start*Conductor_Parado"><path d="M471.8,435.13 C475.6,454.47 483.4324,494.2127 489.0324,522.6927 " fill="none" id="*start*Conductor-to-Parado" style="stroke:#181818;stroke-width:1.0;"/><polygon fill="#181818" points="490.19,528.58,492.3784,518.9774,489.2253,523.6739,484.5287,520.5208,490.19,528.58" style="stroke:#181818;stroke-width:1.0;"/><text fill="#000000" font-family="sans-serif" font-size="13" lengthAdjust="spacing" textLength="32" x="484" y="495.0669">inicia</text></g><!--link Parado to Conduciendo--><g id="link_Parado_Conduciendo"><path d="M479.82,579.35 C475.05,588.33 470.41,598.8 468,609 C464.26,624.83 467.2294,636.7571 473.9694,650.3171 " fill="none" id="Parado-to-Conduciendo" style="stroke:#181818;stroke-width:1.0;"/><polygon fill="#181818" points="476.64,655.69,476.216,645.8503,474.4145,651.2126,469.0522,649.4111,476.64,655.69" style="stroke:#181818;stroke-width:1.0;"/><text fill="#000000" font-family="sans-serif" font-size="13" lengthAdjust="spacing" textLength="95" x="469" y="622.0669">en_conduccion</text></g><!--link Conduciendo to Parado--><g id="link_Conduciendo_Parado"><path d="M541.8,655.53 C552.7,647.69 562.82,637.88 569,626 C581.24,602.46 559.4939,585.0177 534.7239,572.2577 " fill="none" id="Conduciendo-to-Parado" style="stroke:#181818;stroke-width:1.0;"/><polygon fill="#181818" points="529.39,569.51,535.559,577.1874,533.8349,571.7997,539.2226,570.0756,529.39,569.51" style="stroke:#181818;stroke-width:1.0;"/><text fill="#000000" font-family="sans-serif" font-size="13" lengthAdjust="spacing" textLength="58" x="573" y="622.0669">incidente</text></g><!--link Conduciendo to En_destino--><g id="link_Conduciendo_En_destino"><path d="M476.33,655.7 C470.47,646.47 463.83,635.81 458,626 C424.98,570.4 411.27,558.94 387,499 C380.09,481.94 352.4346,373.2585 339.5946,322.2485 " fill="none" id="Conduciendo-to-En_destino" style="stroke:#181818;stroke-width:1.0;"/><polygon fill="#181818" points="338.13,316.43,336.4479,326.1342,339.3505,321.2787,344.2059,324.1813,338.13,316.43" style="stroke:#181818;stroke-width:1.0;"/><text fill="#000000" font-family="sans-serif" font-size="13" lengthAdjust="spacing" textLength="84" x="388" y="495.0669">llega_destino</text></g><!--link En_destino to *end*Conductor--><g id="link_En_destino_*end*Conductor"><path d="M380.85,305.99 C416.79,318.32 464.94,339.3 498,371 C510.77,383.25 516.9596,396.9328 520.9996,408.5528 " fill="none" id="En_destino-to-*end*Conductor" style="stroke:#181818;stroke-width:1.0;"/><polygon fill="#181818" points="522.97,414.22,523.7926,404.4056,521.328,409.4973,516.2363,407.0327,522.97,414.22" style="stroke:#181818;stroke-width:1.0;"/><text fill="#000000" font-family="sans-serif" font-size="13" lengthAdjust="spacing" textLength="15" x="487" y="359.0669">fin</text></g><!--link *start*Pasajero to En_espera--><g id="link_*start*Pasajero_En_espera"><path d="M751.51,435.13 C754.71,454.47 761.271,494.1804 765.981,522.6604 " fill="none" id="*start*Pasajero-to-En_espera" style="stroke:#181818;stroke-width:1.0;"/><polygon fill="#181818" points="766.96,528.58,769.4379,519.048,766.1442,523.647,761.5451,520.3533,766.96,528.58" style="stroke:#181818;stroke-width:1.0;"/><text fill="#000000" font-family="sans-serif" font-size="13" lengthAdjust="spacing" textLength="32" x="762" y="495.0669">inicia</text></g><!--link En_espera to Pagando--><g id="link_En_espera_Pagando"><path d="M757.31,579.37 C751.11,593.91 746.98,612.18 756,626 C774.04,653.63 803.8782,665.8414 832.1782,672.4714 " fill="none" id="En_espera-to-Pagando" style="stroke:#181818;stroke-width:1.0;"/><polygon fill="#181818" points="838.02,673.84,830.1697,667.8926,833.1518,672.6995,828.3449,675.6817,838.02,673.84" style="stroke:#181818;stroke-width:1.0;"/><text fill="#000000" font-family="sans-serif" font-size="13" lengthAdjust="spacing" textLength="78" x="757" y="622.0669">llega_el_bus</text></g><!--link Pagando to En_espera--><g id="link_Pagando_En_espera"><path d="M868.72,655.79 C861.86,641.3 851.93,623.04 840,609 C830.74,598.11 823.7543,591.5641 812.5743,583.0541 " fill="none" id="Pagando-to-En_espera" style="stroke:#181818;stroke-width:1.0;"/><polygon fill="#181818" points="807.8,579.42,812.5387,588.0539,811.7785,582.4484,817.3841,581.6883,807.8,579.42" style="stroke:#181818;stroke-width:1.0;"/><text fill="#000000" font-family="sans-serif" font-size="13" lengthAdjust="spacing" textLength="111" x="852" y="622.0669">error_en_el_pago</text></g><!--link Pagando to En_transporte--><g id="link_Pagando_En_transporte"><path d="M881.11,706.33 C882.73,720.68 885.49,739.09 890,755 C892.83,765 894.6243,770.1166 898.6843,779.2566 " fill="none" id="Pagando-to-En_transporte" style="stroke:#181818;stroke-width:1.0;"/><polygon fill="#181818" points="901.12,784.74,901.122,774.8911,899.0902,780.1705,893.8108,778.1388,901.12,784.74" style="stroke:#181818;stroke-width:1.0;"/><text fill="#000000" font-family="sans-serif" font-size="13" lengthAdjust="spacing" textLength="97" x="891" y="751.0669">pago_realizado</text></g><!--link En_transporte to En_destino--><g id="link_En_transporte_En_destino"><path d="M960.67,784.54 C972.62,776.5 984.45,766.6 993,755 C1013.1,727.72 1015,715.89 1015,682 C1015,424 1015,424 1015,424 C1015,359.35 543.1452,311.0447 386.8252,296.7947 " fill="none" id="En_transporte-to-En_destino" style="stroke:#181818;stroke-width:1.0;"/><polygon fill="#181818" points="380.85,296.25,389.4497,301.0505,385.8294,296.7039,390.176,293.0836,380.85,296.25" style="stroke:#181818;stroke-width:1.0;"/><text fill="#000000" font-family="sans-serif" font-size="13" lengthAdjust="spacing" textLength="84" x="1016" y="558.5669">llega_destino</text></g><!--link En_destino to *end*Pasajero--><g id="link_En_destino_*end*Pasajero"><path d="M380.62,295.26 C482.7,302.96 715.1,325.13 778,371 C792.46,381.55 798.4817,396.0809 801.9617,408.2609 " fill="none" id="En_destino-to-*end*Pasajero" style="stroke:#181818;stroke-width:1.0;"/><polygon fill="#181818" points="803.61,414.03,804.9836,404.2774,802.2364,409.2224,797.2914,406.4752,803.61,414.03" style="stroke:#181818;stroke-width:1.0;"/><text fill="#000000" font-family="sans-serif" font-size="13" lengthAdjust="spacing" textLength="15" x="761" y="359.0669">fin</text></g><!--SRC=[bPA_JiGm3CRtFaLcf7k16rWGp3Un81IPn2r1nQcSX87JlJlvLqXBa8vkyVUhxU-JHuPt58_uQbIOhJWF8dvFDy_YSBWLzoGvU117OSWe0rby2CWWDKg7_16hjekAzChygbHg0GQTk0M2-oPgTTk94IZeRXUDpXko4Pfdd43KzugkSg9_xvjsL4OZUUpClufl1wIqZc8qD5o6OSnvtbdIGNdBkq1FQOpTvbbhIIw_6QJC84cL2t47ocYhzuEGRH1xl9d-FpidSF26t3aFT4jCQslefro6Jb3yb0LnbY_1LUT5slT2Piiose_i0fFjmPw1t6BPOpwboSfuBRFvZ0RN9HhaYh3-Jk4B]--></g></svg>