<svg xmlns="http://www.w3.org/2000/svg" xmlns:xlink="http://www.w3.org/1999/xlink" contentStyleType="text/css" height="425px" preserveAspectRatio="none" style="width:869px;height:425px;background:#FFFFFF;" version="1.1" viewBox="0 0 869 425" width="869px" zoomAndPan="magnify"><defs/><g><g id="elem_conductor"><rect fill="#F1F1F1" height="36.2969" style="stroke:#181818;stroke-width:0.5;" width="121" x="413.5" y="7"/><text fill="#000000" font-family="sans-serif" font-size="14" lengthAdjust="spacing" textLength="107" x="420.5" y="21.9951">Juan:Conductor</text><line style="stroke:#181818;stroke-width:0.5;" x1="414.5" x2="533.5" y1="27.2969" y2="27.2969"/></g><g id="elem_ruta"><rect fill="#F1F1F1" height="44.5938" style="stroke:#181818;stroke-width:0.5;" width="174" x="7" y="186.6"/><text fill="#000000" font-family="sans-serif" font-size="14" lengthAdjust="spacing" textLength="153" x="17.5" y="201.5951">Santander-Somo:Ruta</text><line style="stroke:#181818;stroke-width:0.5;" x1="8" x2="180" y1="206.8969" y2="206.8969"/><text fill="#000000" font-family="sans-serif" font-size="14" lengthAdjust="spacing" textLength="162" x="13" y="223.892">horario = "11am-12pm"</text></g><g id="elem_vehiculo"><rect fill="#F1F1F1" height="36.2969" style="stroke:#181818;stroke-width:0.5;" width="136" x="406" y="120.3"/><text fill="#000000" font-family="sans-serif" font-size="14" lengthAdjust="spacing" textLength="122" x="413" y="135.2951">Autobus:Vehiculo</text><line style="stroke:#181818;stroke-width:0.5;" x1="407" x2="541" y1="140.5969" y2="140.5969"/></g><g id="elem_pasajero1"><rect fill="#F1F1F1" height="44.5938" style="stroke:#181818;stroke-width:0.5;" width="234" x="122" y="261.19"/><text fill="#000000" font-family="sans-serif" font-size="14" lengthAdjust="spacing" textLength="93" x="192.5" y="276.1851">Jose:Pasajero</text><line style="stroke:#181818;stroke-width:0.5;" x1="123" x2="355" y1="281.4869" y2="281.4869"/><text fill="#000000" font-family="sans-serif" font-size="14" lengthAdjust="spacing" textLength="222" x="128" y="298.482">tipoAbono = "Familia Numerosa"</text></g><g id="elem_pasajero2"><rect fill="#F1F1F1" height="44.5938" style="stroke:#181818;stroke-width:0.5;" width="167" x="390.5" y="261.19"/><text fill="#000000" font-family="sans-serif" font-size="14" lengthAdjust="spacing" textLength="99" x="424.5" y="276.1851">Julian:Pasajero</text><line style="stroke:#181818;stroke-width:0.5;" x1="391.5" x2="556.5" y1="281.4869" y2="281.4869"/><text fill="#000000" font-family="sans-serif" font-size="14" lengthAdjust="spacing" textLength="155" x="396.5" y="298.482">tipoAbono = "Efectivo"</text></g><g id="elem_pasajero3"><rect fill="#F1F1F1" height="44.5938" style="stroke:#181818;stroke-width:0.5;" width="166" x="593" y="261.19"/><text fill="#000000" font-family="sans-serif" font-size="14" lengthAdjust="spacing" textLength="99" x="626.5" y="276.1851">Jorge:Pasajero</text><line style="stroke:#181818;stroke-width:0.5;" x1="594" x2="758" y1="281.4869" y2="281.4869"/><text fill="#000000" font-family="sans-serif" font-size="14" lengthAdjust="spacing" textLength="154" x="599" y="298.482">tipoAbono = "Jubilado"</text></g><g id="elem_tarifa"><rect fill="#F1F1F1" height="36.2969" style="stroke:#181818;stroke-width:0.5;" width="87" x="430.5" y="382.78"/><text fill="#000000" font-family="sans-serif" font-size="14" lengthAdjust="spacing" textLength="73" x="437.5" y="397.7751">2,5&#8364;:Tarifa</text><line style="stroke:#181818;stroke-width:0.5;" x1="431.5" x2="516.5" y1="403.0769" y2="403.0769"/></g><!--link vehiculo to pasajero1--><g id="link_vehiculo_pasajero1"><path codeLine="26" d="M445.18,156.99 C402.17,183.17 326.3555,229.3208 279.7055,257.7108 " fill="none" id="vehiculo-to-pasajero1" style="stroke:#181818;stroke-width:1.0;"/><polygon fill="#181818" points="274.58,260.83,284.3477,259.5681,278.8512,258.2306,280.1887,252.7342,274.58,260.83" style="stroke:#181818;stroke-width:1.0;"/><text fill="#000000" font-family="sans-serif" font-size="13" lengthAdjust="spacing" textLength="67" x="393" y="213.4569">transporta</text></g><!--link vehiculo to pasajero2--><g id="link_vehiculo_pasajero2"><path codeLine="27" d="M474,156.99 C474,183.25 474,226.72 474,255.07 " fill="none" id="vehiculo-to-pasajero2" style="stroke:#181818;stroke-width:1.0;"/><polygon fill="#181818" points="474,261.07,478,252.07,474,256.07,470,252.07,474,261.07" style="stroke:#181818;stroke-width:1.0;"/><text fill="#000000" font-family="sans-serif" font-size="13" lengthAdjust="spacing" textLength="67" x="475" y="213.4569">transporta</text></g><!--link vehiculo to pasajero3--><g id="link_vehiculo_pasajero3"><path codeLine="28" d="M504.45,157.09 C518.8,165.65 536.01,176.3 551,186.6 C585.94,210.6 619.723,236.9315 644.623,256.9415 " fill="none" id="vehiculo-to-pasajero3" style="stroke:#181818;stroke-width:1.0;"/><polygon fill="#181818" points="649.3,260.7,644.7902,251.9443,645.4025,257.5679,639.7789,258.1803,649.3,260.7" style="stroke:#181818;stroke-width:1.0;"/><text fill="#000000" font-family="sans-serif" font-size="13" lengthAdjust="spacing" textLength="67" x="611" y="213.4569">transporta</text></g><!--link conductor to ruta--><g id="link_conductor_ruta"><path codeLine="29" d="M437.22,43.74 C367.37,77.15 221.1328,147.0912 144.9828,183.5112 " fill="none" id="conductor-to-ruta" style="stroke:#181818;stroke-width:1.0;"/><polygon fill="#181818" points="139.57,186.1,149.415,185.8254,144.0807,183.9427,145.9634,178.6083,139.57,186.1" style="stroke:#181818;stroke-width:1.0;"/><text fill="#000000" font-family="sans-serif" font-size="13" lengthAdjust="spacing" textLength="34" x="372" y="86.3669">sigue</text></g><!--link conductor to tarifa--><g id="link_conductor_tarifa"><path codeLine="30" d="M522.94,43.74 C628.62,84.41 862,190.36 777,305.78 C745.97,347.92 599.9992,378.3299 523.7592,391.7499 " fill="none" id="conductor-to-tarifa" style="stroke:#181818;stroke-width:1.0;"/><polygon fill="#181818" points="517.85,392.79,527.4072,395.1692,522.7743,391.9232,526.0203,387.2903,517.85,392.79" style="stroke:#181818;stroke-width:1.0;"/><text fill="#000000" font-family="sans-serif" font-size="13" lengthAdjust="spacing" textLength="36" x="791" y="213.4569">cobra</text></g><!--link conductor to vehiculo--><g id="link_conductor_vehiculo"><path codeLine="31" d="M474,43.54 C474,64.33 474,92.92 474,113.81 " fill="none" id="conductor-to-vehiculo" style="stroke:#181818;stroke-width:1.0;"/><polygon fill="#181818" points="474,119.81,478,110.81,474,114.81,470,110.81,474,119.81" style="stroke:#181818;stroke-width:1.0;"/><text fill="#000000" font-family="sans-serif" font-size="13" lengthAdjust="spacing" textLength="54" x="475" y="86.3669">conduce</text></g><!--link pasajero1 to tarifa--><g id="link_pasajero1_tarifa"><path codeLine="32" d="M283.2,306.2 C328.14,328.28 391.5149,359.4041 433.0549,379.8141 " fill="none" id="pasajero1-to-tarifa" style="stroke:#181818;stroke-width:1.0;"/><polygon fill="#181818" points="438.44,382.46,432.1263,374.9011,433.9524,380.2551,428.5984,382.0812,438.44,382.46" style="stroke:#181818;stroke-width:1.0;"/><text fill="#000000" font-family="sans-serif" font-size="13" lengthAdjust="spacing" textLength="32" x="379" y="348.8469">paga</text></g><!--link pasajero2 to tarifa--><g id="link_pasajero2_tarifa"><path codeLine="33" d="M474,306.2 C474,328.28 474,356.05 474,376.46 " fill="none" id="pasajero2-to-tarifa" style="stroke:#181818;stroke-width:1.0;"/><polygon fill="#181818" points="474,382.46,478,373.46,474,377.46,470,373.46,474,382.46" style="stroke:#181818;stroke-width:1.0;"/><text fill="#000000" font-family="sans-serif" font-size="13" lengthAdjust="spacing" textLength="32" x="475" y="348.8469">paga</text></g><!--link pasajero3 to tarifa--><g id="link_pasajero3_tarifa"><path codeLine="34" d="M638.01,306.2 C599.38,328.28 545.4892,359.0727 509.7792,379.4827 " fill="none" id="pasajero3-to-tarifa" style="stroke:#181818;stroke-width:1.0;"/><polygon fill="#181818" points="504.57,382.46,514.3687,381.4668,508.911,379.9789,510.3989,374.5212,504.57,382.46" style="stroke:#181818;stroke-width:1.0;"/><text fill="#000000" font-family="sans-serif" font-size="13" lengthAdjust="spacing" textLength="32" x="582" y="348.8469">paga</text></g><!--link ruta to tarifa--><g id="link_ruta_tarifa"><path codeLine="35" d="M76.55,231.39 C61.82,252.31 45.66,284.03 63,305.78 C108.62,363.03 327.8323,387.7738 424.1723,396.0938 " fill="none" id="ruta-to-tarifa" style="stroke:#181818;stroke-width:1.0;"/><polygon fill="#181818" points="430.15,396.61,421.5275,391.8505,425.1685,396.1798,420.8392,399.8208,430.15,396.61" style="stroke:#181818;stroke-width:1.0;"/><text fill="#000000" font-family="sans-serif" font-size="13" lengthAdjust="spacing" textLength="39" x="64" y="288.0569">define</text></g><!--SRC=[ZL8zJyCm4DtzAwpCP4WY5aiWLOWE6H2YYFsIEAchn1VvemjYuVVmg_Wb6CSqTULAUFBvthttV7VO77XhQ5PRaEm1PMTRWogZe6dx5z5tya481kGEf07PSPNlS4BsOWruk78NXwJkx5614aZlQ5OKCEL5EK_PESV66coiPczyBrexeYSuXY2Mgr5pzWmQ3bmjk3a4HL0pOiPDWzBhRM4Iem3wP2S7qH39rjQbP9gjJB4zzgvE735cGJLSiLIbI6hRY16wcAIykVt-_6Alha_zqZ_ZhyldJwt8y_kp_p9g54WzepAGnfJ_m5GnPXtpByXFaL4j1iilKi4WSulHgCkwan8BUyF9wZkgdc40ilgzdgiIEMylUkvuBoJ_0G00]--></g></svg>