<svg xmlns="http://www.w3.org/2000/svg" xmlns:xlink="http://www.w3.org/1999/xlink" contentStyleType="text/css" height="499px" preserveAspectRatio="none" style="width:901px;height:499px;background:#FFFFFF;" version="1.1" viewBox="0 0 901 499" width="901px" zoomAndPan="magnify"><defs/><g><g id="elem_conductor"><rect fill="#F1F1F1" height="44.5938" style="stroke:#181818;stroke-width:0.5;" width="125" x="434.5" y="7"/><text fill="#000000" font-family="sans-serif" font-size="14" lengthAdjust="spacing" textLength="107" x="443.5" y="21.9951">Juan:Conductor</text><line style="stroke:#181818;stroke-width:0.5;" x1="435.5" x2="558.5" y1="27.2969" y2="27.2969"/><text fill="#000000" font-family="sans-serif" font-size="14" lengthAdjust="spacing" textLength="113" x="440.5" y="44.292">nombre = "Juan"</text></g><g id="elem_ruta"><rect fill="#F1F1F1" height="77.1875" style="stroke:#181818;stroke-width:0.5;" width="212" x="7" y="203.19"/><text fill="#000000" font-family="sans-serif" font-size="14" lengthAdjust="spacing" textLength="153" x="36.5" y="218.1851">Santander-Somo:Ruta</text><line style="stroke:#181818;stroke-width:0.5;" x1="8" x2="218" y1="223.4869" y2="223.4869"/><text fill="#000000" font-family="sans-serif" font-size="14" lengthAdjust="spacing" textLength="200" x="13" y="240.482">nombre = "Santander-Somo"</text><text fill="#000000" font-family="sans-serif" font-size="14" lengthAdjust="spacing" textLength="161" x="13" y="256.7789">horario = "11am-12am"</text><text fill="#000000" font-family="sans-serif" font-size="14" lengthAdjust="spacing" textLength="155" x="13" y="273.0757">parada = "Aeropuerto"</text></g><g id="elem_vehiculo"><rect fill="#F1F1F1" height="44.5938" style="stroke:#181818;stroke-width:0.5;" width="142" x="426" y="128.59"/><text fill="#000000" font-family="sans-serif" font-size="14" lengthAdjust="spacing" textLength="122" x="436" y="143.5851">Autobus:Vehiculo</text><line style="stroke:#181818;stroke-width:0.5;" x1="427" x2="567" y1="148.8869" y2="148.8869"/><text fill="#000000" font-family="sans-serif" font-size="14" lengthAdjust="spacing" textLength="130" x="432" y="165.882">estado = "En_ruta"</text></g><g id="elem_pasajero1"><rect fill="#F1F1F1" height="60.8906" style="stroke:#181818;stroke-width:0.5;" width="234" x="145" y="310.38"/><text fill="#000000" font-family="sans-serif" font-size="14" lengthAdjust="spacing" textLength="93" x="215.5" y="325.3751">Jose:Pasajero</text><line style="stroke:#181818;stroke-width:0.5;" x1="146" x2="378" y1="330.6769" y2="330.6769"/><text fill="#000000" font-family="sans-serif" font-size="14" lengthAdjust="spacing" textLength="113" x="151" y="347.672">nombre = "Jose"</text><text fill="#000000" font-family="sans-serif" font-size="14" lengthAdjust="spacing" textLength="222" x="151" y="363.9689">tipoAbono = "Familia Numerosa"</text></g><g id="elem_pasajero2"><rect fill="#F1F1F1" height="60.8906" style="stroke:#181818;stroke-width:0.5;" width="167" x="413.5" y="310.38"/><text fill="#000000" font-family="sans-serif" font-size="14" lengthAdjust="spacing" textLength="99" x="447.5" y="325.3751">Juli&#225;n:Pasajero</text><line style="stroke:#181818;stroke-width:0.5;" x1="414.5" x2="579.5" y1="330.6769" y2="330.6769"/><text fill="#000000" font-family="sans-serif" font-size="14" lengthAdjust="spacing" textLength="119" x="419.5" y="347.672">nombre = "Juli&#225;n"</text><text fill="#000000" font-family="sans-serif" font-size="14" lengthAdjust="spacing" textLength="155" x="419.5" y="363.9689">tipoAbono = "Efectivo"</text></g><g id="elem_pasajero3"><rect fill="#F1F1F1" height="60.8906" style="stroke:#181818;stroke-width:0.5;" width="166" x="616" y="310.38"/><text fill="#000000" font-family="sans-serif" font-size="14" lengthAdjust="spacing" textLength="99" x="649.5" y="325.3751">Jorge:Pasajero</text><line style="stroke:#181818;stroke-width:0.5;" x1="617" x2="781" y1="330.6769" y2="330.6769"/><text fill="#000000" font-family="sans-serif" font-size="14" lengthAdjust="spacing" textLength="119" x="622" y="347.672">nombre = "Jorge"</text><text fill="#000000" font-family="sans-serif" font-size="14" lengthAdjust="spacing" textLength="154" x="622" y="363.9689">tipoAbono = "Jubilado"</text></g><g id="elem_tarifa"><rect fill="#F1F1F1" height="44.5938" style="stroke:#181818;stroke-width:0.5;" width="99" x="447.5" y="448.27"/><text fill="#000000" font-family="sans-serif" font-size="14" lengthAdjust="spacing" textLength="73" x="460.5" y="463.2651">2,5&#8364;:Tarifa</text><line style="stroke:#181818;stroke-width:0.5;" x1="448.5" x2="545.5" y1="468.5669" y2="468.5669"/><text fill="#000000" font-family="sans-serif" font-size="14" lengthAdjust="spacing" textLength="87" x="453.5" y="485.562">monto = 2.5</text></g><!--link vehiculo to pasajero1--><g id="link_vehiculo_pasajero1"><path codeLine="34" d="M462.63,173.47 C449.08,182.31 433.55,192.88 420,203.19 C374.54,237.77 329.6391,277.4724 298.4091,306.0124 " fill="none" id="vehiculo-to-pasajero1" style="stroke:#181818;stroke-width:1.0;"/><polygon fill="#181818" points="293.98,310.06,303.3221,306.9413,297.6709,306.687,297.9253,301.0359,293.98,310.06" style="stroke:#181818;stroke-width:1.0;"/><text fill="#000000" font-family="sans-serif" font-size="13" lengthAdjust="spacing" textLength="67" x="421" y="246.3469">transporta</text></g><!--link vehiculo to pasajero2--><g id="link_vehiculo_pasajero2"><path codeLine="35" d="M497,173.45 C497,207.1 497,266.18 497,304.2 " fill="none" id="vehiculo-to-pasajero2" style="stroke:#181818;stroke-width:1.0;"/><polygon fill="#181818" points="497,310.2,501,301.2,497,305.2,493,301.2,497,310.2" style="stroke:#181818;stroke-width:1.0;"/><text fill="#000000" font-family="sans-serif" font-size="13" lengthAdjust="spacing" textLength="67" x="498" y="246.3469">transporta</text></g><!--link vehiculo to pasajero3--><g id="link_vehiculo_pasajero3"><path codeLine="36" d="M533.57,173.67 C546.81,182.21 561.56,192.52 574,203.19 C612.69,236.36 647.5716,276.1936 671.4416,305.2536 " fill="none" id="vehiculo-to-pasajero3" style="stroke:#181818;stroke-width:1.0;"/><polygon fill="#181818" points="675.25,309.89,672.6284,300.3965,672.0764,306.0263,666.4465,305.4743,675.25,309.89" style="stroke:#181818;stroke-width:1.0;"/><text fill="#000000" font-family="sans-serif" font-size="13" lengthAdjust="spacing" textLength="67" x="649" y="246.3469">transporta</text></g><!--link conductor to ruta--><g id="link_conductor_ruta"><path codeLine="37" d="M457.35,52.03 C392.49,87.58 268.1414,155.746 187.7414,199.816 " fill="none" id="conductor-to-ruta" style="stroke:#181818;stroke-width:1.0;"/><polygon fill="#181818" points="182.48,202.7,192.2948,201.8817,186.8645,200.2967,188.4495,194.8664,182.48,202.7" style="stroke:#181818;stroke-width:1.0;"/><text fill="#000000" font-family="sans-serif" font-size="13" lengthAdjust="spacing" textLength="34" x="401" y="94.6569">sigue</text></g><!--link conductor to tarifa--><g id="link_conductor_tarifa"><path codeLine="38" d="M543.92,51.95 C650.42,104.04 894.17,241.71 800,371.27 C741.8,451.34 622.8462,467.2773 552.9462,469.7573 " fill="none" id="conductor-to-tarifa" style="stroke:#181818;stroke-width:1.0;"/><polygon fill="#181818" points="546.95,469.97,556.0862,473.6484,551.9469,469.7927,555.8025,465.6534,546.95,469.97" style="stroke:#181818;stroke-width:1.0;"/><text fill="#000000" font-family="sans-serif" font-size="13" lengthAdjust="spacing" textLength="36" x="817" y="246.3469">cobra</text></g><!--link conductor to vehiculo--><g id="link_conductor_vehiculo"><path codeLine="39" d="M497,51.95 C497,73.63 497,100.78 497,122.39 " fill="none" id="conductor-to-vehiculo" style="stroke:#181818;stroke-width:1.0;"/><polygon fill="#181818" points="497,128.39,501,119.39,497,123.39,493,119.39,497,128.39" style="stroke:#181818;stroke-width:1.0;"/><text fill="#000000" font-family="sans-serif" font-size="13" lengthAdjust="spacing" textLength="54" x="498" y="94.6569">conduce</text></g><!--link pasajero1 to tarifa--><g id="link_pasajero1_tarifa"><path codeLine="40" d="M316.8,371.61 C359.79,394.98 413.3587,424.0941 451.9287,445.0641 " fill="none" id="pasajero1-to-tarifa" style="stroke:#181818;stroke-width:1.0;"/><polygon fill="#181818" points="457.2,447.93,451.2037,440.1169,452.8073,445.5417,447.3825,447.1453,457.2,447.93" style="stroke:#181818;stroke-width:1.0;"/><text fill="#000000" font-family="sans-serif" font-size="13" lengthAdjust="spacing" textLength="32" x="402" y="414.3369">paga</text></g><!--link pasajero2 to tarifa--><g id="link_pasajero2_tarifa"><path codeLine="41" d="M497,371.45 C497,394.89 497,421.06 497,442.07 " fill="none" id="pasajero2-to-tarifa" style="stroke:#181818;stroke-width:1.0;"/><polygon fill="#181818" points="497,448.07,501,439.07,497,443.07,493,439.07,497,448.07" style="stroke:#181818;stroke-width:1.0;"/><text fill="#000000" font-family="sans-serif" font-size="13" lengthAdjust="spacing" textLength="32" x="498" y="414.3369">paga</text></g><!--link pasajero3 to tarifa--><g id="link_pasajero3_tarifa"><path codeLine="42" d="M651.89,371.61 C614.94,394.98 569.4411,423.7531 536.2811,444.7231 " fill="none" id="pasajero3-to-tarifa" style="stroke:#181818;stroke-width:1.0;"/><polygon fill="#181818" points="531.21,447.93,540.9545,446.5004,535.4359,445.2576,536.6787,439.7389,531.21,447.93" style="stroke:#181818;stroke-width:1.0;"/><text fill="#000000" font-family="sans-serif" font-size="13" lengthAdjust="spacing" textLength="32" x="605" y="414.3369">paga</text></g><!--link ruta to tarifa--><g id="link_ruta_tarifa"><path codeLine="43" d="M90.06,280.83 C76.6,308.59 65.81,345.68 86,371.27 C130.54,427.71 341.8293,454.7477 441.2193,464.6077 " fill="none" id="ruta-to-tarifa" style="stroke:#181818;stroke-width:1.0;"/><polygon fill="#181818" points="447.19,465.2,438.6288,460.3311,442.2144,464.7064,437.8391,468.292,447.19,465.2" style="stroke:#181818;stroke-width:1.0;"/><text fill="#000000" font-family="sans-serif" font-size="13" lengthAdjust="spacing" textLength="39" x="87" y="345.3869">define</text></g><!--SRC=[ZL8zJiCm5Dvp2YipGKggBfP0gb0PEY144IjwITpMLUmN-QSBOk4cxDo2ct0I7CTGdBeIcUnyltbvMEzPOqY-iY3f3ShMDWPLJa2JvkT6NZBY7ecYLenSZUGyUyqo3EerI0EoPQfOeq3wO0ru2-KE9-gOd7jqXmeKnm4kIn15MO4OaHuKj3002wQmjqmPZB8Nrc1jDNrYEzxO3dtm8Ln2EDC6Mk- -bCz3gSXXXPhHUz2mTmbUteTBUVhfZZiMCxp7HOtIszw2u1q7ScU5a-c9l-tuvxjCHrI9wNfw8cMvSNxyW9FsQdkc_YnHtv4JpYjRyywDA7AkBkPVRn_qqVsPpVW_ZJy6Lu7I3EBgSZweVaTU5DT_1aY9KI1rZyf0cbFzWpEBESVL74X-ooZHV6lP10g5gLlcMarrlqaqx3hBZhqZTGzRo8vzpsEp1ERhHQzRjk6IVGC0]--></g></svg>