<svg xmlns="http://www.w3.org/2000/svg" xmlns:xlink="http://www.w3.org/1999/xlink" contentStyleType="text/css" height="639px" preserveAspectRatio="none" style="width:202px;height:639px;background:#FFFFFF;" version="1.1" viewBox="0 0 202 639" width="202px" zoomAndPan="magnify"><defs/><g><ellipse cx="73.75" cy="16" fill="#222222" rx="10" ry="10" style="stroke:#222222;stroke-width:1.0;"/><g id="En_espera"><rect fill="#F1F1F1" height="50" rx="12.5" ry="12.5" style="stroke:#181818;stroke-width:0.5;" width="93" x="27.25" y="103"/><line style="stroke:#181818;stroke-width:0.5;" x1="27.25" x2="120.25" y1="129.2969" y2="129.2969"/><text fill="#000000" font-family="sans-serif" font-size="14" lengthAdjust="spacing" textLength="73" x="37.25" y="120.9951">En_espera</text></g><g id="Pagando"><rect fill="#F1F1F1" height="50" rx="12.5" ry="12.5" style="stroke:#181818;stroke-width:0.5;" width="81" x="33.25" y="230"/><line style="stroke:#181818;stroke-width:0.5;" x1="33.25" x2="114.25" y1="256.2969" y2="256.2969"/><text fill="#000000" font-family="sans-serif" font-size="14" lengthAdjust="spacing" textLength="61" x="43.25" y="247.9951">Pagando</text></g><g id="En_transporte"><rect fill="#F1F1F1" height="50" rx="12.5" ry="12.5" style="stroke:#181818;stroke-width:0.5;" width="117" x="15.25" y="357"/><line style="stroke:#181818;stroke-width:0.5;" x1="15.25" x2="132.25" y1="383.2969" y2="383.2969"/><text fill="#000000" font-family="sans-serif" font-size="14" lengthAdjust="spacing" textLength="97" x="25.25" y="374.9951">En_transporte</text></g><g id="En_destino"><rect fill="#F1F1F1" height="50" rx="12.5" ry="12.5" style="stroke:#181818;stroke-width:0.5;" width="97" x="25.25" y="484"/><line style="stroke:#181818;stroke-width:0.5;" x1="25.25" x2="122.25" y1="510.2969" y2="510.2969"/><text fill="#000000" font-family="sans-serif" font-size="14" lengthAdjust="spacing" textLength="77" x="35.25" y="501.9951">En_destino</text></g><ellipse cx="73.75" cy="622" fill="none" rx="11" ry="11" style="stroke:#222222;stroke-width:1.0;"/><ellipse cx="73.75" cy="622" fill="#222222" rx="6" ry="6" style="stroke:#222222;stroke-width:1.0;"/><!--link *start* to En_espera--><g id="link_*start*_En_espera"><path d="M73.75,26.38 C73.75,43.11 73.75,72.59 73.75,96.63 " fill="none" id="*start*-to-En_espera" style="stroke:#181818;stroke-width:1.0;"/><polygon fill="#181818" points="73.75,102.63,77.75,93.63,73.75,97.63,69.75,93.63,73.75,102.63" style="stroke:#181818;stroke-width:1.0;"/><text fill="#000000" font-family="sans-serif" font-size="13" lengthAdjust="spacing" textLength="32" x="74.75" y="69.0669">inicia</text></g><!--link En_espera to Pagando--><g id="link_En_espera_Pagando"><path d="M36.94,153.41 C27.62,161.61 18.82,171.61 13.75,183 C6,200.4 13.5239,213.0191 28.8639,225.6891 " fill="none" id="En_espera-to-Pagando" style="stroke:#181818;stroke-width:1.0;"/><polygon fill="#181818" points="33.49,229.51,29.0981,220.6946,29.6349,226.3259,24.0036,226.8627,33.49,229.51" style="stroke:#181818;stroke-width:1.0;"/><text fill="#000000" font-family="sans-serif" font-size="13" lengthAdjust="spacing" textLength="72" x="14.75" y="196.0669">llega el bus</text></g><!--link Pagando to En_espera--><g id="link_Pagando_En_espera"><path d="M85.07,229.58 C90.06,215.99 94.3,198.69 91.75,183 C90.14,173.05 88.9582,168.1139 85.7082,158.9639 " fill="none" id="Pagando-to-En_espera" style="stroke:#181818;stroke-width:1.0;"/><polygon fill="#181818" points="83.7,153.31,82.9431,163.1297,85.3735,158.0216,90.4816,160.4521,83.7,153.31" style="stroke:#181818;stroke-width:1.0;"/><text fill="#000000" font-family="sans-serif" font-size="13" lengthAdjust="spacing" textLength="102" x="92.75" y="196.0669">error en el pago</text></g><!--link Pagando to En_transporte--><g id="link_Pagando_En_transporte"><path d="M73.75,280.4 C73.75,302.42 73.75,328.66 73.75,350.66 " fill="none" id="Pagando-to-En_transporte" style="stroke:#181818;stroke-width:1.0;"/><polygon fill="#181818" points="73.75,356.66,77.75,347.66,73.75,351.66,69.75,347.66,73.75,356.66" style="stroke:#181818;stroke-width:1.0;"/><text fill="#000000" font-family="sans-serif" font-size="13" lengthAdjust="spacing" textLength="94" x="74.75" y="323.0669">pago realizado</text></g><!--link En_transporte to En_destino--><g id="link_En_transporte_En_destino"><path d="M73.75,407.4 C73.75,429.42 73.75,455.66 73.75,477.66 " fill="none" id="En_transporte-to-En_destino" style="stroke:#181818;stroke-width:1.0;"/><polygon fill="#181818" points="73.75,483.66,77.75,474.66,73.75,478.66,69.75,474.66,73.75,483.66" style="stroke:#181818;stroke-width:1.0;"/><text fill="#000000" font-family="sans-serif" font-size="13" lengthAdjust="spacing" textLength="81" x="74.75" y="450.0669">llega destino</text></g><!--link En_destino to *end*--><g id="link_En_destino_*end*"><path d="M73.75,534.36 C73.75,558.23 73.75,587.46 73.75,604.71 " fill="none" id="En_destino-to-*end*" style="stroke:#181818;stroke-width:1.0;"/><polygon fill="#181818" points="73.75,610.71,77.75,601.71,73.75,605.71,69.75,601.71,73.75,610.71" style="stroke:#181818;stroke-width:1.0;"/><text fill="#000000" font-family="sans-serif" font-size="13" lengthAdjust="spacing" textLength="15" x="74.75" y="577.0669">fin</text></g><!--SRC=[NOyn2iCm34Ltdq9p8HV8qArxzr2AMlyQWP6Cx2uzVMr8I9jH_pr9_ELqesawqqNlg0NED9EeF8N37WtXoearMiSv8p4Xq-DTmnOVRy3TdA33AvpiA3PdhSMyeSj380Td-N2qy8_NXOZQHFV_wnn-q32NtcUcb-WN]--></g></svg>