<svg xmlns="http://www.w3.org/2000/svg" xmlns:xlink="http://www.w3.org/1999/xlink" contentStyleType="text/css" height="512px" preserveAspectRatio="none" style="width:365px;height:512px;background:#FFFFFF;" version="1.1" viewBox="0 0 365 512" width="365px" zoomAndPan="magnify"><defs/><g><ellipse cx="139" cy="16" fill="#222222" rx="10" ry="10" style="stroke:#222222;stroke-width:1.0;"/><g id="Fuera_de_servicio"><rect fill="#F1F1F1" height="50" rx="12.5" ry="12.5" style="stroke:#181818;stroke-width:0.5;" width="143" x="67.5" y="103"/><line style="stroke:#181818;stroke-width:0.5;" x1="67.5" x2="210.5" y1="129.2969" y2="129.2969"/><text fill="#000000" font-family="sans-serif" font-size="14" lengthAdjust="spacing" textLength="123" x="77.5" y="120.9951">Fuera_de_servicio</text></g><g id="En_ruta"><rect fill="#F1F1F1" height="50" rx="12.5" ry="12.5" style="stroke:#181818;stroke-width:0.5;" width="72" x="103" y="230"/><line style="stroke:#181818;stroke-width:0.5;" x1="103" x2="175" y1="256.2969" y2="256.2969"/><text fill="#000000" font-family="sans-serif" font-size="14" lengthAdjust="spacing" textLength="52" x="113" y="247.9951">En_ruta</text></g><g id="En_parada"><rect fill="#F1F1F1" height="50" rx="12.5" ry="12.5" style="stroke:#181818;stroke-width:0.5;" width="92" x="12" y="357"/><line style="stroke:#181818;stroke-width:0.5;" x1="12" x2="104" y1="383.2969" y2="383.2969"/><text fill="#000000" font-family="sans-serif" font-size="14" lengthAdjust="spacing" textLength="72" x="22" y="374.9951">En_parada</text></g><g id="En_destino"><rect fill="#F1F1F1" height="50" rx="12.5" ry="12.5" style="stroke:#181818;stroke-width:0.5;" width="97" x="238.5" y="357"/><line style="stroke:#181818;stroke-width:0.5;" x1="238.5" x2="335.5" y1="383.2969" y2="383.2969"/><text fill="#000000" font-family="sans-serif" font-size="14" lengthAdjust="spacing" textLength="77" x="248.5" y="374.9951">En_destino</text></g><ellipse cx="287" cy="495" fill="none" rx="11" ry="11" style="stroke:#222222;stroke-width:1.0;"/><ellipse cx="287" cy="495" fill="#222222" rx="6" ry="6" style="stroke:#222222;stroke-width:1.0;"/><!--link *start* to Fuera_de_servicio--><g id="link_*start*_Fuera_de_servicio"><path d="M139,26.38 C139,43.11 139,72.59 139,96.63 " fill="none" id="*start*-to-Fuera_de_servicio" style="stroke:#181818;stroke-width:1.0;"/><polygon fill="#181818" points="139,102.63,143,93.63,139,97.63,135,93.63,139,102.63" style="stroke:#181818;stroke-width:1.0;"/><text fill="#000000" font-family="sans-serif" font-size="13" lengthAdjust="spacing" textLength="32" x="140" y="69.0669">inicia</text></g><!--link Fuera_de_servicio to En_ruta--><g id="link_Fuera_de_servicio_En_ruta"><path d="M139,153.4 C139,175.42 139,201.66 139,223.66 " fill="none" id="Fuera_de_servicio-to-En_ruta" style="stroke:#181818;stroke-width:1.0;"/><polygon fill="#181818" points="139,229.66,143,220.66,139,224.66,135,220.66,139,229.66" style="stroke:#181818;stroke-width:1.0;"/><text fill="#000000" font-family="sans-serif" font-size="13" lengthAdjust="spacing" textLength="62" x="140" y="196.0669">inicia ruta</text></g><!--link En_ruta to En_parada--><g id="link_En_ruta_En_parada"><path d="M102.81,269.43 C85.01,278.09 65.22,291.28 55,310 C47.31,324.08 47.0877,336.2759 49.8277,350.6659 " fill="none" id="En_ruta-to-En_parada" style="stroke:#181818;stroke-width:1.0;"/><polygon fill="#181818" points="50.95,356.56,53.196,346.9706,50.0148,351.6482,45.3372,348.467,50.95,356.56" style="stroke:#181818;stroke-width:1.0;"/><text fill="#000000" font-family="sans-serif" font-size="13" lengthAdjust="spacing" textLength="39" x="56" y="323.0669">pausa</text></g><!--link En_parada to En_ruta--><g id="link_En_parada_En_ruta"><path d="M78.3,356.61 C85.48,347.54 93.41,337.02 100,327 C109.89,311.96 116.8703,299.5325 124.1503,285.5425 " fill="none" id="En_parada-to-En_ruta" style="stroke:#181818;stroke-width:1.0;"/><polygon fill="#181818" points="126.92,280.22,119.2172,286.3573,124.6119,284.6554,126.3138,290.0502,126.92,280.22" style="stroke:#181818;stroke-width:1.0;"/><text fill="#000000" font-family="sans-serif" font-size="13" lengthAdjust="spacing" textLength="53" x="112" y="323.0669">reanuda</text></g><!--link En_ruta to En_destino--><g id="link_En_ruta_En_destino"><path d="M167.89,280.4 C193.97,302.42 227.5453,330.7896 253.6053,352.7896 " fill="none" id="En_ruta-to-En_destino" style="stroke:#181818;stroke-width:1.0;"/><polygon fill="#181818" points="258.19,356.66,253.8932,347.7979,254.3694,353.4346,248.7326,353.9108,258.19,356.66" style="stroke:#181818;stroke-width:1.0;"/><text fill="#000000" font-family="sans-serif" font-size="13" lengthAdjust="spacing" textLength="81" x="222" y="323.0669">llega destino</text></g><!--link En_destino to Fuera_de_servicio--><g id="link_En_destino_Fuera_de_servicio"><path d="M303.99,356.69 C311.46,342.99 317.43,325.55 312,310 C287.78,240.64 225.0502,187.4424 181.8702,156.9324 " fill="none" id="En_destino-to-Fuera_de_servicio" style="stroke:#181818;stroke-width:1.0;"/><polygon fill="#181818" points="176.97,153.47,182.0121,161.9304,181.0535,156.3553,186.6286,155.3968,176.97,153.47" style="stroke:#181818;stroke-width:1.0;"/><text fill="#000000" font-family="sans-serif" font-size="13" lengthAdjust="spacing" textLength="58" x="299" y="259.5669">incidente</text></g><!--link En_parada to Fuera_de_servicio--><g id="link_En_parada_Fuera_de_servicio"><path d="M43.69,356.76 C27.59,326.1 6,272.21 25,230 C39.7,197.33 65.8113,174.3134 91.8113,156.7134 " fill="none" id="En_parada-to-Fuera_de_servicio" style="stroke:#181818;stroke-width:1.0;"/><polygon fill="#181818" points="96.78,153.35,87.0847,155.0827,92.6395,156.1528,91.5693,161.7075,96.78,153.35" style="stroke:#181818;stroke-width:1.0;"/><text fill="#000000" font-family="sans-serif" font-size="13" lengthAdjust="spacing" textLength="58" x="26" y="259.5669">incidente</text></g><!--link En_destino to *end*--><g id="link_En_destino_*end*"><path d="M287,407.36 C287,431.23 287,460.46 287,477.71 " fill="none" id="En_destino-to-*end*" style="stroke:#181818;stroke-width:1.0;"/><polygon fill="#181818" points="287,483.71,291,474.71,287,478.71,283,474.71,287,483.71" style="stroke:#181818;stroke-width:1.0;"/><text fill="#000000" font-family="sans-serif" font-size="13" lengthAdjust="spacing" textLength="15" x="288" y="450.0669">fin</text></g><!--SRC=[XL1B2eD03DtFAR8Ml82BxlGIKePWKWb8AfcPdbz7nc8huYulxvD7-ke9TVs0Bh6X9_Q1xIE3lA41qNL0TwQoeLLlAU9N1XcvVLiKCnfIrioOmiQMpM-2CMgYaviuHD7SP9fuH2ZO7QZhweCGQ-I_cxVQOt2__gQ1b-W2]--></g></svg>