<svg xmlns="http://www.w3.org/2000/svg" xmlns:xlink="http://www.w3.org/1999/xlink" contentStyleType="text/css" height="413px" preserveAspectRatio="none" style="width:327px;height:413px;background:#FFFFFF;" version="1.1" viewBox="0 0 327 413" width="327px" zoomAndPan="magnify"><defs/><g><ellipse cx="110.08" cy="16" fill="#222222" rx="10" ry="10" style="stroke:#222222;stroke-width:1.0;"/><g id="En_ruta"><rect fill="#F1F1F1" height="50" rx="12.5" ry="12.5" style="stroke:#181818;stroke-width:0.5;" width="72" x="74.08" y="103"/><line style="stroke:#181818;stroke-width:0.5;" x1="74.08" x2="146.08" y1="129.2969" y2="129.2969"/><text fill="#000000" font-family="sans-serif" font-size="14" lengthAdjust="spacing" textLength="52" x="84.08" y="120.9951">En_ruta</text></g><g id="Fuera_de_servicio"><rect fill="#F1F1F1" height="50" rx="12.5" ry="12.5" style="stroke:#181818;stroke-width:0.5;" width="143" x="35.58" y="357"/><line style="stroke:#181818;stroke-width:0.5;" x1="35.58" x2="178.58" y1="383.2969" y2="383.2969"/><text fill="#000000" font-family="sans-serif" font-size="14" lengthAdjust="spacing" textLength="123" x="45.58" y="374.9951">Fuera_de_servicio</text></g><g id="En_parada"><rect fill="#F1F1F1" height="50" rx="12.5" ry="12.5" style="stroke:#181818;stroke-width:0.5;" width="92" x="96.08" y="230"/><line style="stroke:#181818;stroke-width:0.5;" x1="96.08" x2="188.08" y1="256.2969" y2="256.2969"/><text fill="#000000" font-family="sans-serif" font-size="14" lengthAdjust="spacing" textLength="72" x="106.08" y="247.9951">En_parada</text></g><g id="En_destino"><rect fill="#F1F1F1" height="50" rx="12.5" ry="12.5" style="stroke:#181818;stroke-width:0.5;" width="97" x="223.58" y="230"/><line style="stroke:#181818;stroke-width:0.5;" x1="223.58" x2="320.58" y1="256.2969" y2="256.2969"/><text fill="#000000" font-family="sans-serif" font-size="14" lengthAdjust="spacing" textLength="77" x="233.58" y="247.9951">En_destino</text></g><ellipse cx="307.08" cy="382" fill="none" rx="11" ry="11" style="stroke:#222222;stroke-width:1.0;"/><ellipse cx="307.08" cy="382" fill="#222222" rx="6" ry="6" style="stroke:#222222;stroke-width:1.0;"/><!--link *start* to En_ruta--><g id="link_*start*_En_ruta"><path d="M110.08,26.38 C110.08,43.11 110.08,72.59 110.08,96.63 " fill="none" id="*start*-to-En_ruta" style="stroke:#181818;stroke-width:1.0;"/><polygon fill="#181818" points="110.08,102.63,114.08,93.63,110.08,97.63,106.08,93.63,110.08,102.63" style="stroke:#181818;stroke-width:1.0;"/><text fill="#000000" font-family="sans-serif" font-size="13" lengthAdjust="spacing" textLength="32" x="111.08" y="69.0669">inicia</text></g><!--link Fuera_de_servicio to En_ruta--><g id="link_Fuera_de_servicio_En_ruta"><path d="M74.57,356.73 C52.89,338.38 26.21,311.09 14.08,280 C6,259.3 6.16,250.76 14.08,230 C26.07,198.58 48.6798,175.2893 71.1098,157.0993 " fill="none" id="Fuera_de_servicio-to-En_ruta" style="stroke:#181818;stroke-width:1.0;"/><polygon fill="#181818" points="75.77,153.32,66.2602,155.8821,71.8865,156.4694,71.2992,162.0957,75.77,153.32" style="stroke:#181818;stroke-width:1.0;"/><text fill="#000000" font-family="sans-serif" font-size="13" lengthAdjust="spacing" textLength="62" x="15.08" y="259.5669">inicia ruta</text></g><!--link En_ruta to En_parada--><g id="link_En_ruta_En_parada"><path d="M81.08,153.48 C68.77,166.94 58.93,184.1 67.08,200 C73.52,212.57 79.4887,219.4092 90.9887,227.5292 " fill="none" id="En_ruta-to-En_parada" style="stroke:#181818;stroke-width:1.0;"/><polygon fill="#181818" points="95.89,230.99,90.8452,222.5313,91.8056,228.106,86.2308,229.0664,95.89,230.99" style="stroke:#181818;stroke-width:1.0;"/><text fill="#000000" font-family="sans-serif" font-size="13" lengthAdjust="spacing" textLength="39" x="68.08" y="196.0669">pausa</text></g><!--link En_parada to En_ruta--><g id="link_En_parada_En_ruta"><path d="M135.85,229.66 C130.22,207.66 123.4587,181.2324 117.8187,159.2124 " fill="none" id="En_parada-to-En_ruta" style="stroke:#181818;stroke-width:1.0;"/><polygon fill="#181818" points="116.33,153.4,114.6882,163.111,117.5706,158.2436,122.438,161.1261,116.33,153.4" style="stroke:#181818;stroke-width:1.0;"/><text fill="#000000" font-family="sans-serif" font-size="13" lengthAdjust="spacing" textLength="53" x="128.08" y="196.0669">reanuda</text></g><!--link En_ruta to En_destino--><g id="link_En_ruta_En_destino"><path d="M146.57,152.3 C160.45,161.5 176.25,172.4 190.08,183 C209.36,197.77 225.5726,211.6847 241.3326,225.8147 " fill="none" id="En_ruta-to-En_destino" style="stroke:#181818;stroke-width:1.0;"/><polygon fill="#181818" points="245.8,229.82,241.7692,220.8338,242.0772,226.4822,236.4287,226.7903,245.8,229.82" style="stroke:#181818;stroke-width:1.0;"/><text fill="#000000" font-family="sans-serif" font-size="13" lengthAdjust="spacing" textLength="81" x="211.08" y="196.0669">llega destino</text></g><!--link En_destino to Fuera_de_servicio--><g id="link_En_destino_Fuera_de_servicio"><path d="M239.88,280.4 C210.8,302.42 173.0332,331.0376 143.9832,353.0376 " fill="none" id="En_destino-to-Fuera_de_servicio" style="stroke:#181818;stroke-width:1.0;"/><polygon fill="#181818" points="139.2,356.66,148.7896,354.4152,143.186,353.6414,143.9598,348.0377,139.2,356.66" style="stroke:#181818;stroke-width:1.0;"/><text fill="#000000" font-family="sans-serif" font-size="13" lengthAdjust="spacing" textLength="58" x="200.08" y="323.0669">incidente</text></g><!--link En_parada to Fuera_de_servicio--><g id="link_En_parada_Fuera_de_servicio"><path d="M120.2,280.35 C113.71,289.08 107.44,299.4 104.08,310 C99.31,325.06 99.2311,336.8675 101.1811,350.8475 " fill="none" id="En_parada-to-Fuera_de_servicio" style="stroke:#181818;stroke-width:1.0;"/><polygon fill="#181818" points="102.01,356.79,104.7283,347.3237,101.3193,351.8379,96.805,348.4289,102.01,356.79" style="stroke:#181818;stroke-width:1.0;"/><text fill="#000000" font-family="sans-serif" font-size="13" lengthAdjust="spacing" textLength="58" x="105.08" y="323.0669">incidente</text></g><!--link En_destino to *end*--><g id="link_En_destino_*end*"><path d="M278.91,280.4 C286.63,307.97 297.2142,345.7417 302.6642,365.2317 " fill="none" id="En_destino-to-*end*" style="stroke:#181818;stroke-width:1.0;"/><polygon fill="#181818" points="304.28,371.01,305.7085,361.2653,302.9335,366.1947,298.0041,363.4197,304.28,371.01" style="stroke:#181818;stroke-width:1.0;"/><text fill="#000000" font-family="sans-serif" font-size="13" lengthAdjust="spacing" textLength="15" x="292.08" y="323.0669">fin</text></g><!--SRC=[XP1B2iCm34JtFeNMXLmWY-xQIuHWHAGKGL22RFVyjOi3-K6McdaQ3UeUFJJD4rxgBKM45aHb47Jln8QUs0UsRrRcImpAv5Qr4WiQKc4MJE7lLcMVO8oQwBHD7ABed85fuWz2dTt6AkIvN-aq2B56FjoyPRV1NVv82wFe3m00]--></g></svg>